<svg width="800" height="600" viewBox="0 0 800 600" xmlns="http://www.w3.org/2000/svg">
  <!-- Field background -->
  <rect width="800" height="600" fill="#4CAF50" />
  
  <!-- Field outline -->
  <rect x="50" y="50" width="700" height="500" stroke="white" stroke-width="4" fill="none" />
  
  <!-- Center circle -->
  <circle cx="400" cy="300" r="91.5" stroke="white" stroke-width="4" fill="none" />
  <circle cx="400" cy="300" r="3" fill="white" />
  
  <!-- Center line -->
  <line x1="400" y1="50" x2="400" y2="550" stroke="white" stroke-width="4" />
  
  <!-- Penalty areas -->
  <!-- Left penalty area -->
  <rect x="50" y="175" width="165" height="250" stroke="white" stroke-width="4" fill="none" />
  
  <!-- Right penalty area -->
  <rect x="585" y="175" width="165" height="250" stroke="white" stroke-width="4" fill="none" />
  
  <!-- Goal areas -->
  <!-- Left goal area -->
  <rect x="50" y="225" width="55" height="150" stroke="white" stroke-width="4" fill="none" />
  
  <!-- Right goal area -->
  <rect x="695" y="225" width="55" height="150" stroke="white" stroke-width="4" fill="none" />
  
  <!-- Penalty spots -->
  <circle cx="165" cy="300" r="3" fill="white" />
  <circle cx="635" cy="300" r="3" fill="white" />
  
  <!-- Penalty arcs -->
  <path d="M 256.5,300 a 91.5,91.5 0 0,1 0,0.01" stroke="white" stroke-width="4" fill="none" />
  <path d="M 543.5,300 a 91.5,91.5 0 0,0 0,0.01" stroke="white" stroke-width="4" fill="none" />
  
  <!-- Corner arcs -->
  <path d="M 55,55 a 5,5 0 0,0 -5,5" stroke="white" stroke-width="4" fill="none" />
  <path d="M 745,55 a 5,5 0 0,1 5,5" stroke="white" stroke-width="4" fill="none" />
  <path d="M 55,545 a 5,5 0 0,1 -5,-5" stroke="white" stroke-width="4" fill="none" />
  <path d="M 745,545 a 5,5 0 0,0 5,-5" stroke="white" stroke-width="4" fill="none" />
  
  <!-- Goals -->
  <rect x="42" y="275" width="8" height="50" stroke="white" stroke-width="2" fill="none" />
  <rect x="750" y="275" width="8" height="50" stroke="white" stroke-width="2" fill="none" />
</svg> 