<svg xmlns="http://www.w3.org/2000/svg" id="Layer_1" data-name="Layer 1" viewBox="0 0 100 100"><defs><style>      .cls-1 {        fill: #152558;      }      .cls-2 {        fill: #e73425;      }      .cls-3 {        fill: #cfd0d2;      }      .cls-4 {        fill: #f2c05f;      }    </style></defs><path class="cls-2" d="M70.3,62.67c.69-.59,1.4-1.12,2.12-1.58l-.05.03c-16.85-6.14-29.79-1.47-31.01-1-.03.01-.06.02-.1.04,0,0,.03-.01.1-.04,15.99-6.33,31.61.62,31.61.62h-.02c4.96-3,10.11-3.34,11.38-3.37-.03-.23-.07-.46-.11-.69-.01-.07-.02-.13-.03-.2-.03-.17-.06-.35-.1-.52-.01-.06-.02-.12-.03-.18-.09-.46-.19-.91-.3-1.36-.01-.04-.02-.08-.03-.12-.05-.2-.1-.39-.15-.59,0-.03-.02-.06-.02-.09-.12-.46-.25-.91-.38-1.34v-.02c-.07-.22-.14-.43-.21-.65h0c-.05-.14-.09-.28-.14-.42v-.02c-.05-.13-.1-.27-.14-.4,0-.01,0-.02-.01-.03-.05-.13-.09-.26-.14-.38v-.03c-.06-.13-.1-.25-.15-.38h0c-.09-.24-.18-.47-.27-.68-.49-1.28-3.48,3.11-3.48,3.11-5.23,5.98-12.06.84-12.06.84,8.52,4.13,11.55-1.35,13.41-3.95.83-1.17,1.35-1.29,1.66-1.06-.22-.47-.43-.86-.62-1.16-.15-.24-.3-.43-.41-.54-.75-.7-1.12-.06-1.69,1.02-.7,1.34-1.68,3.37-4.05,4.37-1.89.8-4.71-.3-7.27-1.78-1.76-1.01-3.39-2.21-4.51-3.07-.26-1.6-1.33-3.43-2.27-3.68-1.24-.34-14.84,3.82-16.08,4.83-.48.39-.57.74-.51,1.02l.59.72s1.69,3.45,12.48-1.01c0,0-4.89,4.04-11.13,2.69-1.09-.24-1.94-.56-2.59-.93-.52.31-1.17.7-1.94,1.14-.23.47-.52,1.37-.28,2.69.06.32-.09.64-.36.81l-.19.11c-.48.29-1.11-.01-1.18-.57-.06-.5-.05-1.16.1-1.97-.66.36-1.36.74-2.08,1.12-.2.51-.37,1.32-.17,2.44.04.21-.01.43-.14.6-.06.08-.14.16-.23.21l-.19.11c-.28.17-.62.14-.86-.03-.17-.12-.29-.31-.32-.54-.05-.48-.05-1.1.09-1.87-.68.34-1.37.67-2.06.98-.1.48-.14,1.1,0,1.87,0,.03,0,.06,0,.08.02.29-.12.57-.37.73l-.19.11c-.45.27-1.02.03-1.15-.45-.01-.04-.02-.08-.03-.12-.04-.39-.05-.89.02-1.47-.79.33-1.56.63-2.32.89-.04.35-.04.77.02,1.24.01.09.02.17.04.26.06.32-.09.64-.36.81l-.19.11c-.48.29-1.11-.01-1.18-.57,0-.07-.01-.15-.02-.22-.02-.32-.02-.69.03-1.11-.97.26-1.88.43-2.67.47.45.3.84.63,1.17.98,1.02,1.08,1.52,2.35,1.75,3.52,16.59-2.62,31.1-1.92,41.97-.39M50,50.08s-4.11.73-4.36-.88c-.28-1.81,13.45-4.65,13.45-4.65,0,0-7.73,2.3-10.44,3.74-2.54,1.35,1.35,1.8,1.35,1.8"></path><path class="cls-2" d="M19.45,64.74c.97-.22,1.94-.42,2.91-.62.48-.1.96-.19,1.44-.28,1.43-.27,2.86-.52,4.26-.75-.35-1.22-.92-2.14-1.52-2.82-.85-.16-1.63-.22-2.35-.19-1.18.04-2.21.31-3.09.71-2.66,1.19-4.06,3.57-4.58,4.64.49-.12.98-.24,1.47-.35s.98-.23,1.47-.34"></path><path class="cls-2" d="M19.4,60.79c2.63-1.73,5.93-1.59,5.93-1.59-.7-.49-1.25-.67-1.25-.68-1.81-.04-3.39.4-4.68,1.13-1.28.72-2.29,1.73-2.98,2.82h0c-.16.25-.29.5-.42.76,0,.02-.02.04-.03.06-.05.11-.1.21-.14.32,0,.02-.02.04-.03.07-.05.12-.09.24-.13.37h0c-.04.13-.08.26-.11.38,0,.02-.01.05-.02.07-.02.1-.04.19-.06.29,0,.04-.01.07-.02.11-.01.09-.03.17-.04.26,0,.03,0,.07-.01.11-.01.12-.02.24-.02.35h0l.66-.07h0c.1-.03.21-.05.31-.08.42-2.3,1.64-3.76,3.05-4.68"></path><path class="cls-2" d="M74.67,63.36c.62.11,1.22.22,1.8.33.29.06.58.11.87.17.21.04.43.08.63.13.42.08.83.17,1.23.25.2.04.4.09.59.13.39.09.77.17,1.15.26.63.14,1.23.29,1.8.43.45.11.88.22,1.3.33v-.02s.01-.03.02-.04c.05-.15.09-.31.13-.47h0c.02-.08.04-.16.06-.24.02-.08.04-.16.06-.24.01-.05.02-.1.03-.16.02-.12.05-.24.07-.36,0-.05.02-.11.03-.16h0c.02-.15.05-.31.07-.46,0-.03,0-.06.01-.09.02-.15.03-.31.05-.47,0-.03,0-.07,0-.11,0-.03,0-.05,0-.08,0-.07.01-.14.01-.21,0-.05,0-.1,0-.14,0-.06,0-.12.01-.19,0-.16.01-.33.02-.49,0-.21,0-.43,0-.65h0c0-.17,0-.33-.01-.49,0-.01,0-.03,0-.04,0-.15-.01-.3-.02-.45,0-.03,0-.06,0-.09,0-.14-.02-.27-.03-.41,0-.05,0-.1-.01-.14-.01-.12-.02-.23-.03-.35,0-.08-.02-.16-.03-.24,0-.09-.02-.17-.03-.26-.02-.17-.04-.33-.06-.5-6.01.12-10.55,2.54-13.59,4.92.68.1,1.34.2,1.98.3.65.1,1.28.21,1.89.32"></path><path class="cls-4" d="M15.38,65.62l.66-.07-.66.07Z"></path><polygon class="cls-4" points="15.38 65.62 15.38 65.62 16.04 65.55 15.38 65.62"></polygon><path class="cls-4" d="M16,63.23c.12-.26.26-.51.42-.76-.16.25-.29.5-.42.76"></path><path class="cls-4" d="M84.04,65.35s0-.03.01-.04c0,.01,0,.03-.01.04h0Z"></path><path class="cls-4" d="M84.31,64.31s.01-.07.02-.1c-.01.05-.02.11-.03.16,0-.02,0-.04.01-.06"></path><path class="cls-4" d="M84.42,63.75s0-.04,0-.06c0,.05-.02.11-.03.16,0-.03.01-.07.02-.1"></path><path class="cls-4" d="M84.3,64.36h0c-.02.08-.04.16-.06.24.02-.08.04-.16.06-.24"></path><polygon class="cls-4" points="44.12 91.12 43.73 90.32 43.33 91.12 42.45 91.24 43.09 91.87 42.96 92.63 43.03 92.69 42.94 92.75 43.73 92.33 44.52 92.75 44.37 91.87 45.01 91.24 44.12 91.12"></polygon><polygon class="cls-4" points="50.8 90.69 50 89.08 49.2 90.69 48.36 90.82 47.42 90.95 48.2 91.72 48.65 92.15 48.71 92.21 48.41 93.98 50 93.14 51.59 93.98 51.29 92.21 51.35 92.15 51.8 91.72 52.58 90.95 51.64 90.82 50.8 90.69"></polygon><polygon class="cls-4" points="56.67 91.12 56.27 90.32 55.88 91.12 54.99 91.24 55.63 91.87 55.48 92.75 56.27 92.33 57.06 92.75 56.91 91.87 57.55 91.24 56.67 91.12"></polygon><path class="cls-4" d="M48.65,48.28c2.71-1.44,10.44-3.74,10.44-3.74,0,0-13.73,2.84-13.45,4.65.25,1.61,4.36.88,4.36.88,0,0-3.9-.45-1.35-1.8"></path><path class="cls-1" d="M54.09,4.65h.14c.1,0,.16-.03.19-.09.02-.04.03-.08.03-.14v-.15s-.01-.67-.01-.67v-.41s0-.19,0-.19c0-.11-.04-.18-.12-.21,0,0-.01,0-.02,0,0,0,0,0-.01,0-.02,0-.05,0-.08,0h-.14s.03,1.8.03,1.8v.08Z"></path><path class="cls-1" d="M45.11,4.78s.05,0,.07,0c.1-.02.15-.1.15-.22l-.02-1.42c0-.14-.06-.21-.18-.22-.02,0-.03,0-.05,0h-.14s.03,1.88.03,1.88h.14Z"></path><path class="cls-1" d="M16.73,21.8c.09.18.15.35.23.53.15.37.3.76.59,1.13.5.65.84,1.41,1.08,2.41.02.28.08,2.97.22,17.3,0,.15.09.28.23.34.05-.12.11-.23.16-.35.41-.83.85-1.64,1.32-2.43.88-1.46,1.88-2.88,2.99-4.21,1.08-1.3,2.26-2.52,3.52-3.65,1.24-1.11,2.56-2.13,3.93-3.04,1.39-.92,2.85-1.74,4.36-2.44,1.5-.7,3.08-1.3,4.68-1.78,1.65-.5,3.37-.87,5.1-1.12,1.65-.23,3.33-.35,4.99-.35h.2c1.78.01,3.57.16,5.32.44,1.74.28,3.47.7,5.15,1.24,1.67.54,3.31,1.22,4.87,2.01s3.08,1.71,4.5,2.74c1.38.99,2.69,2.1,3.91,3.28,1.23,1.2,2.38,2.5,3.41,3.88,1.01,1.34,1.93,2.77,2.72,4.24.53.98,1.01,2,1.44,3.05,0,.02.01.03.02.05l.31.88.13.36c.15-.05.26-.19.26-.36.05-4.41.24-18.9.3-20.32.03-.7.07-.89.07-.92.06-.14.19-.28.31-.43.16-.19.35-.4.46-.67.11-.26.12-.53.14-.77l.14-2.12c.01-.19.03-.46-.07-.72,0-.05-.03-.1-.05-.14-.14-.23-.41-.37-.67-.37-.2,0-.39.09-.51.24-.12.15-.15.31-.16.44-.05.39,0,.77.05,1.14.01.08.02.17.03.25.04.35.06.76-.09,1.08-.04.09-.19.25-.3.35,0-.1.02-.22.03-.3.04-.34.1-.76-.16-1.08-.15-.19-.38-.31-.69-.34-.05,0-.1,0-.14,0-.33,0-.54.14-.65.26-.16.17-.24.4-.27.63-.11-.09-.27-.16-.48-.16h-.13c.05-.3.11-.67.01-1.01-.13-.46-.57-.8-1.05-.8-.03,0-.06,0-.08,0-.06,0-.12.02-.18.03.12-.17.26-.3.4-.45.12-.12.23-.23.34-.36.13-.16.22-.36.26-.6.32-.24.73-.6.94-.9.11-.05.23-.13.34-.29.12-.18.19-.42.2-.75.31-.63.53-1.29.73-1.93.21-.63.4-1.23.68-1.81.06-.13.15-.3.14-.52,0-.49-.45-.77-.64-.89-.13-.08-.31-.19-.56-.19-.49,0-.81.47-.85.91-.01.14,0,.28,0,.41,0,.13.01.25,0,.36-.09.43-.36.83-.64,1.25-.26.39-.54.79-.69,1.26-.08.23-.1.38-.11.5-.04.03-.1.07-.14.1-.15.1-.35.23-.53.38-.12.01-.26.05-.4.11-.28.13-.72.44-.86.73-.02,0-.05,0-.07,0-.15,0-.28.02-.41.05-.05-.02-.1-.04-.15-.06,0-.01,0-.03,0-.04.05-.12.11-.26.16-.42.02-.05.04-.11.05-.16.1-.08.19-.22.2-.46,0-.01,0-.03,0-.03h0c.23-.55.04-.84-.09-.95l-.02-.02c.06-.6-.07-1.13-.37-1.49-.26-.31-.62-.47-1.06-.47-.11,0-.22,0-.33.03-.2.03-.4.1-.6.21-.47.24-.62.56-.7.96-.13-.32-.28-.68-.45-1.07.03-.09.04-.18.03-.26-.02-.19-.09-.35-.17-.49.02-.08.03-.16.02-.23,0-.08-.04-.19-.16-.36h0c0-.22,0-.76-.08-1.27-.1-.6-.39-.73-.63-.74-.01,0-.02,0-.04,0-.13-.1-.27-.12-.37-.12-.08,0-.16.02-.23.05-.05-.01-.1-.02-.14-.02-.07,0-.14.01-.21.04-.07.03-.15.08-.23.17-.06,0-.12.01-.17.03-.18.06-.31.21-.38.37l-.02-.02c.1-.41,0-.68-.08-.82.02-.26-.04-.53-.27-.69-.09-.06-.2-.1-.3-.1-.03,0-.05,0-.08,0-.08-.03-.15-.04-.21-.04-.04,0-.09,0-.14.02-.11.03-.42.11-.78.94-.24.21-.36.55-.34.91-.06.22-.08.39-.08.51-.08.15-.16.33-.25.54-.03.08-.05.17-.06.26-.23.33-.44.65-.63.98.01-.06.02-.11.03-.17,0-.02,0-.04,0-.05,0-.24.04-.49.09-.75.04-.26.09-.53.1-.81,0-.34.06-.68.13-1.09.02-.11.04-.22.06-.33.26-.24.43-.6.45-1,0-.05,0-.1,0-.15-.01-.32-.12-.59-.33-.78-.23-.2-.51-.26-.71-.29-.06,0-.14-.02-.22-.02-.09,0-.18.01-.26.03-.3.08-.53.29-.66.6-.16.39-.14.92.04,1.3-.05.23-.09.47-.12.69-.03.21-.07.44-.1.53-.16.39-.32.79-.47,1.18-.06.15-.12.3-.18.45-.23.57-.49,1.21-.6,1.85-.06.04-.12.08-.18.11-.24.15-.44.26-.61.41h0s-.07,0-.11.02h-.03c-.33.1-.53.3-.65.44-.14.06-.26.15-.35.24-.06-.01-.13-.02-.19-.02-.11,0-.21.02-.31.05,0-.11,0-.23-.01-.34h0c0-.09.06-.28.1-.43.02-.06.03-.12.05-.17.17-.13.31-.39.32-.87,0-.35-.04-.58-.16-.74.01-.21.02-.52-.02-.83h0c-.01-.11-.03-.27-.11-.43h0c-.1-.26-.25-.45-.44-.58-.06-.04-.14-.06-.21-.06h-.01c-.14-.11-.32-.2-.53-.2h-.04s-.08.01-.11.02c-.2-.09-.45-.15-.75-.15-.17,0-.35.03-.51.08-.06.02-.11.05-.15.09.04-.07.07-.14.09-.22.22-.75.6-2.14.7-3.06.02-.21.04-.47.07-.75.04.15.1.3.2.44.03.04.07.1.12.16.07.09.19.14.3.14.01,0,.03,0,.04,0,.13-.01.25-.09.31-.21.12-.24.22-.48.32-.75.09-.27.2-.48.34-.66.14-.19.3-.36.46-.54.13-.14.26-.28.39-.43.1-.13.12-.31.03-.45-.1-.17-.27-.45-.3-.55-.02-.06-.02-.13-.03-.22-.03-.44-.12-.85-.78-1.36-.04-.29-.18-.51-.26-.62-.1-.13-.23-.21-.38-.25-.01-.02-.03-.04-.04-.06-.13-.17-.32-.27-.53-.28-.14-.16-.33-.25-.54-.25-.1,0-.2.02-.3.05-.02,0-.03.01-.05.02-.1-.07-.22-.1-.35-.1s-.26.04-.39.11c-.12.07-.22.17-.3.29-.31-.02-.64-.03-1.01-.03-.8,0-1.61.05-2.34.09h-.03c-.58.03-1.08.06-1.48.06-.13,0-.24,0-.35,0-.61-.04-2.12-.06-3.74-.06-1.86,0-6.2.03-7.39.32-.11-.07-.23-.11-.35-.11-.02,0-.05,0-.08,0-.22.03-.51.1-.76.29-.29.1-.51.26-.66.46-.16.1-.29.24-.38.39-.02.03-.04.07-.05.1-.09.08-.16.17-.22.27-.08.14-.12.36-.05.9-.59.81-1.04,1.57-1.15,1.82-.02.04-.04.08-.05.12v.03c-.06.1-.05.22,0,.32-.05.53.24,1.03.49,1.48.08.15.16.29.22.42.11.25.21.48.28.71.04.15.17.26.32.28.02,0,.03,0,.05,0,.14,0,.26-.07.34-.19.18-.3.26-.36.26-.36.1-.08.2-.18.3-.31.21.68.44,1.32.69,1.85,0,.53.08.89.25,1.17.16.26.34.37.5.43.29.47.97,1.14,1.56,1.59.02.2.07.38.13.55-.05.05-.1.1-.15.14-.15.02-.3.08-.47.17-.34.19-.83.62-.93.95h0c-.18.01-.4.04-.61.13-.08-.03-.16-.05-.25-.08-.01-.04-.02-.07-.03-.1.05-.14.1-.32.15-.53.02-.07.04-.14.05-.22.11-.09.2-.26.19-.53,0-.02,0-.05,0-.05h0c.19-.6,0-.9-.18-1.04-.02-.01-.03-.02-.05-.04.02-.69-.17-1.29-.52-1.67-.29-.31-.67-.48-1.12-.48-.17,0-.36.02-.55.07-.08.02-.33.09-.54.19-.16.06-.36.19-.52.36.1-.41.2-.82.28-1.07.14-.46.3-.99.16-1.55-.01-.04-.01-.08-.01-.13,0-.34-.1-.59-.56-.91-.04-.03-.08-.04-.12-.06-.09-.02-.18-.04-.26-.05-.06,0-.14-.02-.22-.02-.09,0-.18.01-.25.03-.66.18-.89.96-.72,1.62,0,.02.01.04.02.06l.09.2c-.06.23-.09.48-.13.71-.03.21-.07.45-.1.53-.16.39-.32.79-.47,1.18-.06.15-.12.3-.18.45-.23.57-.49,1.21-.6,1.85-.06.04-.12.08-.18.11-.24.15-.44.26-.61.41h0s-.07,0-.11.02h-.03c-.33.1-.53.3-.65.44-.14.06-.26.15-.35.24-.06-.01-.13-.02-.19-.02-.11,0-.21.02-.32.05,0-.11,0-.23-.01-.34h0c0-.09.06-.28.1-.43.02-.06.03-.12.05-.17.17-.13.31-.39.32-.87,0-.35-.04-.58-.16-.74.04-.6,0-1.47-.58-1.83-.06-.04-.14-.06-.21-.06h-.01c-.14-.11-.32-.2-.53-.2h-.04s-.08.01-.11.02c-.2-.09-.45-.15-.74-.15-.17,0-.35.03-.51.08-.16.05-.27.2-.28.36-.02.01-.03.03-.05.04-.1.09-.14.23-.11.37,0,.02.01.05.02.07-.17.32-.25.74-.23,1.26-.01.01-.03.02-.04.03-.17.14-.34.44-.18,1.01,0,.01,0,.05,0,.08,0,.26.08.42.18.52.01.07.03.14.05.22.05.2.1.38.15.53-.01.03-.02.07-.03.11-.07.02-.14.04-.2.07-.19-.08-.39-.11-.55-.11h0c-.09-.33-.56-.76-.87-.95-.15-.09-.3-.15-.44-.17-.17-.19-.36-.35-.55-.51-.06-.05-.13-.11-.17-.15,0-.11,0-.29-.06-.59-.02-.42-.25-.88-.43-1.25-.05-.1-.09-.18-.13-.26-.18-.39-.37-.78-.56-1.15.1-.1.16-.22.2-.37.02-.08.02-.15,0-.23.03-.06.06-.13.08-.22.02-.09.02-.19,0-.28.01-.04.02-.07.03-.11.02-.11.02-.22-.02-.33,0-.02.01-.05.02-.07.03-.15.05-.51-.46-.79-.17-.09-.45-.2-.7-.2-.3,0-.45.15-.52.23-.17.22-.27.45-.31.67-.12.25-.17.49-.15.73-.03.11-.04.22-.03.33,0,.18.01.35.03.48.06.48.17.96.26,1.42.04.21.09.42.13.63.14.71.31,1.32.51,1.87-.01.2,0,.37.02.52-.13-.07-.26-.13-.39-.16-.15-.04-.29-.06-.42-.06-.35,0-.66.13-.89.38-.26.29-.4.72-.4,1.22-.13.11-.31.35-.16.84,0,0,0,.02,0,.03,0,.22.06.35.15.44,0,.04.02.09.03.13.04.13.07.24.1.34-.03,0-.05.02-.08.03-.13-.05-.25-.07-.37-.08-.13-.29-.52-.58-.7-.68-.12-.07-.23-.11-.34-.13-.14-.14-.29-.26-.41-.36,0,0-.08-.06-.09-.08,0-.1-.01-.23-.06-.43-.1-.41-.31-.78-.5-1.14-.21-.38-.41-.74-.45-1.1,0-.08,0-.18.02-.29.01-.11.03-.23.03-.36,0-.41-.26-.86-.72-.89-.02,0-.04,0-.06,0-.19,0-.34.08-.46.13-.16.08-.6.3-.64.76-.02.2.05.37.09.49.2.51.32,1.03.45,1.59.13.56.27,1.14.48,1.7-.01.29.03.5.13.68.09.15.18.24.28.29.17.28.48.6.72.82.03.21.09.39.19.53.08.12.18.23.27.34.22.26.43.51.5.96,0,.03,0,.07.01.1.02.23.05.48.08.73-.1.09-.19.18-.27.28-.01-.09-.03-.17-.06-.26-.16-.51-.63-.86-1.15-.86-.56,0-1.05.47-1.08,1.02-.02.38.17.69.35.94-.14-.13-.31-.32-.52-.56l-.05-.06c-.08-.1-.16-.19-.19-.27-.02-.06-.02-.16-.01-.26v-.06c0-.21,0-.43-.09-.65-.12-.3-.35-.52-.63-.58-.05-.01-.11-.02-.16-.02-.43,0-.82.37-.87.82-.05.39.13.63.25.79.04.06.08.11.1.16M73.5,17.22s0,.07,0,.11c0,.09-.02.23-.03.26,0,0,0,0-.02,0-.02,0-.03,0-.05.01.04-.12.08-.25.12-.38M69.25,13.33c.3-.18.31-.53.32-.74,0-.01,0-.02,0-.03.15-.13.24-.28.31-.42.08-.02.15-.06.22-.11h0c.01.05.03.09.05.14.05.09.11.21.18.31l.03.05c.07.1.23.3.43.43.06.11.15.25.26.37.02.16.06.37.15.55.03.07.08.13.13.19.01.24,0,.51,0,.79v.03c0,.45.04.93.24,1.35l-.28.59c-.13.05-.27.16-.39.34.07-.24.08-.47.01-.73.04-.2.03-.4-.02-.61.07-.27.06-.64-.08-.91-.05-.09-.13-.16-.23-.19-.04-.06-.08-.09-.09-.1-.08-.08-.19-.13-.3-.13h-.03c-.18-.11-.34-.15-.37-.16s-.06-.01-.09-.01c-.08,0-.16.03-.22.07-.04,0-.08,0-.12,0h-.03c-.07-.08-.18-.12-.28-.12-.03,0-.06,0-.08,0,.1-.3.2-.62.29-.95M63.59,19.55c-.03-.52.59-1.1.81-1.26h.02c.06-.06.1-.12.13-.19v-.02s.11-.26.17-.62c.55-.58,1.09-1.32,1.29-1.62.01,0,.02-.02.04-.03-.11.22-.16.5-.16.85,0,.19-.02.36-.06.51-.01.04-.27.94-.29,1.3,0,.14,0,.3,0,.47-.21-.19-.48-.3-.76-.3-.09,0-.18.01-.26.03-.29.08-.54.28-.69.57-.15.29-.18.61-.08.9.02.04.04.09.05.14h0c-.07.02-.15.02-.23.04.01-.26.02-.52,0-.77M45.86,19.39c-.07-.09-.09-.26-.1-.45-.02-.26-.05-.56-.24-.83-.18-.26-.49-.41-.82-.41-.14,0-.27.03-.4.08h0c.12-.15.25-.3.36-.46.13-.19.21-.45.24-.74.1-.09.21-.19.31-.29.13.26.22.54.28.84.01.07.02.13.03.2.07.51.16,1.05.25,1.57,0,0,.07.38.08.49h0ZM48.47,11.99c-.17.05-.32.1-.45.16-.27-.11-.55-.13-.76-.13-.05,0-.1,0-.14,0h-.02s.05-.23.05-.23c.18-.75.36-1.53.64-2.26h0c.02.09.05.21.1.32,0,.03.01.08.01.13,0,.35.14.54.28.63.02.11.05.23.09.34.1.29.18.54.26.75-.02.09-.05.18-.08.27M55.42,18.3c.01-.43,0-.88-.04-1.31-.01-.09,0-.19.01-.29h.01c.03.3.1.55.22.74.1.16.21.3.32.44l.02.02c.04.06.09.11.13.17-.24,0-.48.09-.68.23M59.13,11.24s-.02.08-.02.12c-.02.01-.03.02-.05.04-.1.09-.14.23-.11.37,0,.02.01.05.02.07-.17.32-.25.74-.23,1.26-.01,0-.03.02-.04.03-.18.14-.35.44-.18,1.01,0,.01,0,.05,0,.08,0,.26.08.42.18.52.01.07.03.14.05.22.05.2.1.38.15.53-.01.03-.02.07-.03.11-.07.02-.14.04-.2.07-.19-.08-.39-.11-.55-.11h0c-.09-.33-.56-.76-.87-.95-.14-.09-.27-.14-.4-.17.04-.16.06-.32.08-.48.79-.86,1.57-1.96,1.82-2.38.05-.03.1-.07.17-.12.08-.06.16-.13.22-.21M56.39,9.98c-.07.04-.35.22-.35.22-.38.24-.66.42-.89.65-.02,0-.04,0-.06,0-.01,0-.02,0-.03,0-.05-.11-.11-.22-.16-.33.09-.1.16-.22.19-.36.02-.08.02-.15,0-.23.03-.06.06-.13.08-.21.02-.09.02-.19,0-.28.01-.04.02-.07.03-.11.02-.11.02-.22-.02-.33,0-.02.01-.05.02-.07.03-.15.05-.51-.46-.79-.17-.09-.45-.2-.7-.2-.3,0-.45.15-.52.23-.17.22-.27.45-.31.67-.12.25-.17.49-.15.73-.03.11-.04.22-.03.33,0,.18.01.35.03.48.07.48.17.96.27,1.43,0,.03.01.05.02.08-.04,0-.08,0-.12,0-.21,0-.41.05-.59.14-.04-.01-.08-.02-.12-.03-.02-.23-.04-.48-.06-.62h0c0-.15.08-.43.13-.63.02-.1.05-.2.07-.29.22-.16.41-.49.39-1.15-.01-.52-.13-.81-.28-.97.03-.72-.06-1.97-.89-2.41-.06-.03-.12-.05-.18-.05-.03,0-.07,0-.1.01-.02-.02-.05-.04-.08-.05.09,0,1.2.02,1.2.02,1.3.02,2.65.04,3.27.06.05,0,.09,0,.14,0,.45,0,.9-.08,1.3-.14.11-.02.22-.04.32-.05-.52,1.41-1.21,3.35-1.35,4.27M55.39,2.41l.19.87.05.22.17-.87.04-.22h.38s-.04.14-.04.14l-.16.69-.15.61-.05.21v.91s-.38,0-.38,0v-.45s-.01-.43-.01-.43l-.05-.2-.39-1.49h.4ZM54.26,2.43c.3,0,.48.11.54.34.02.06.03.13.03.21v.17s0,.37,0,.37v.87s.01.03.01.03c0,.38-.17.56-.55.57h-.59s-.03-2.26-.03-2.26v-.18s0-.13,0-.13h.59ZM52.62,2.45l.02.09.07.28.14.58.16.64v-.43s-.03-1.07-.03-1.07v-.09s.35,0,.35,0v.08s0,.27,0,.27l.03,2.22h-.43s-.43-1.72-.43-1.72v.45s.03,1.28.03,1.28h-.35s-.04-2.56-.04-2.56h.46ZM51.83,2.46v.2s.03,1.98.03,1.98v.39s-.39,0-.39,0v-.36s-.01-.35-.01-.35l-.02-1.61v-.18s0-.07,0-.07h.39ZM49.46,2.49l.27,1.87.12-1.02.09-.73v-.12s.6,0,.6,0v1.04s.02.1.02.1l.02,1.43h-.39s0-.37,0-.37l-.02-1.49v-.09s0,.04,0,.04l-.19,1.46-.06.46h-.39s-.31-1.97-.31-1.97l.03,1.98h-.34s0-.35,0-.35v-.25s-.03-1.97-.03-1.97h.59ZM47.91,2.49h.17c.19,0,.32.05.4.16.05.08.08.18.09.31v.09s.01.81.01.81v.7s.01.06.01.06c0,.32-.15.48-.47.48h-.17c-.32,0-.48-.14-.48-.46v-.32s.22,0,.22,0h.15s0,.3,0,.3c0,.08.04.13.1.14.01,0,.03,0,.04,0h.06c.1,0,.14-.05.14-.15v-.59c-.06.03-.11.05-.17.06-.04.01-.09.02-.14.02h-.01c-.07,0-.13-.01-.19-.03-.15-.06-.23-.2-.23-.39v-.7c-.01-.32.14-.48.46-.48M46.48,2.51h.17c.21,0,.34.06.41.18.03.05.05.12.06.2,0,.03,0,.05,0,.08v.35s-.37,0-.37,0h0s0-.33,0-.33c0-.02,0-.03,0-.05-.01-.07-.06-.1-.14-.1h-.06c-.1,0-.14.05-.14.15v.38s0,.24,0,.24c.04-.02.08-.04.13-.05.05-.02.11-.03.18-.03h.02c.26,0,.42.17.42.42v.67s0,0,0,0c0,.32-.15.48-.47.48h-.17c-.26,0-.42-.1-.47-.32-.01-.05-.02-.09-.02-.15v-.36s-.02-1.3-.02-1.3c0-.32.15-.48.47-.48M45.13,2.56c.25,0,.41.07.5.23.05.09.07.19.08.33v.51s0,0,0,0v.87s.01.06.01.06c0,.38-.17.56-.55.57h-.59s0-.38,0-.38l-.03-1.77v-.42s.58,0,.58,0ZM42.5,6.15h0c.21.05.45.1.74.11.03,0,.07,0,.1,0,.43,0,.92-.08,1.45-.17h.03c.32-.06.61-.11.9-.15.38-.05,1.42-.16,2.93-.17-.06.08-.09.18-.08.28v.02s-.08.06-.12.09c-.11.1-.15.25-.11.39.01.05.03.09.06.13-.25.46-.34,1.06-.26,1.82-.04.02-.08.05-.12.08-.06.05-.11.11-.16.19-.13-.44-.58-.66-.78-.77-.13-.07-.33-.17-.57-.17-.02,0-.04,0-.06,0-.55.04-.85.6-.86,1.09,0,.17.02.32.04.47.02.16.04.31.03.44-.03.27-.12.54-.23.78-.12-.04-.23-.06-.34-.06-.29-.27-.63-.51-.88-.7-.09-.06-.25-.18-.33-.24,0-.2-.01-.44-.14-.88-.2-.67-.55-1.34-1.26-2.59M43.55,19.34s.01-.1.02-.14c.03-.21.08-.39.15-.55-.01.15.01.31.07.45.05.12.12.22.18.31.05.06.1.14.11.18,0,.07-.15.21-.27.31-.12.1-.25.22-.36.37.04-.31.07-.63.1-.93M43.26,22.14c0-.2.03-.5.07-.84.01.06.03.12.05.18.09.33.17.65.15.94-.01.16-.07.33-.16.45-.03-.23-.07-.43-.1-.56,0-.03,0-.05-.01-.08,0-.02,0-.05,0-.09M36.76,15.63s.06-.04.1-.07c.16-.11.28-.27.35-.46.1-.31.24-.76.36-1.22.03.42.17.64.34.76.02.06.03.12.05.18.03.1.1.32.11.43,0,.07,0,.13,0,.2,0,.36-.03.37-.09.39-.17.06-.36.09-.56.13-.21.04-.43.08-.64.15-.16.05-.32.11-.48.17.21-.27.38-.51.47-.66M34.34,19.34c-.02-.36.27-.75.53-1.01h0s-.01.1-.03.17c-.15.79-.23,1.26.09,1.41,0,.02,0,.04,0,.07-.01.24-.04.47-.08.7-.18-.06-.36-.1-.55-.1.04-.38.07-.83.04-1.24M25.23,17.43s.02-.08.03-.11c.13-.11.25-.32.26-.7,0-.24-.02-.41-.1-.54,0-.11,0-.25-.03-.42.22.29.5.6.74.82.03.29.1.54.22.73.1.16.21.3.32.44l.02.02c.29.37.59.74.68,1.41,0,.05.01.09.02.14,0,.11.02.22.03.33-.02-.07-.04-.15-.08-.24-.09-.19-.2-.37-.35-.55-.24-.29-.63-.44-.98-.55-.17-.05-.33-.08-.48-.11-.13-.02-.26-.05-.37-.08,0-.04,0-.13,0-.18,0-.04,0-.09,0-.13,0-.05.04-.17.07-.27"></path><path class="cls-1" d="M65.12,40.48c-.06.05-.14.11-.25.19-.1.08-.22.17-.35.27-.2.15-.44.33-.7.53-.53.4-1.17.88-1.87,1.4.32.25.62.59.89.97.15-.11.3-.23.44-.33s.29-.22.43-.32c.28-.21.54-.41.78-.59.29-.22.56-.42.79-.59.16-.12.3-.22.42-.31.12-.09.23-.17.32-.23.18-.13.27-.2.28-.2.02,0,.24.13.63.33.17.09.37.2.59.32.17.09.35.19.54.3.19.11.4.22.62.34.14.08.29.16.44.25.15.08.31.17.47.26.24.13.48.27.73.41.17.09.34.19.51.28.25.14.51.29.77.43.26.14.52.29.78.43s.52.29.77.43c.43.24.84.47,1.24.69.24.13.47.26.7.39.45.25.86.48,1.22.68.3.17.56.31.78.44.13.07.24.14.34.19.04.02.08.04.11.06.1.05.16.09.2.11.07-.12.13-.25.19-.36.16-.31.31-.6.47-.86.1-.16.2-.3.3-.44.11-.13.22-.25.34-.35.12-.1.26-.18.41-.24.1-.04.2-.07.32-.09.16-.03.33-.03.49,0h0c.16.03.33.08.49.16-.42-1.01-.88-2-1.4-2.96-.22-.4-.44-.8-.68-1.2-.23-.39-.48-.78-.73-1.17-.17-.26-.34-.51-.51-.76-.23-.33-.47-.66-.72-.99-.25-.33-.51-.66-.78-.99s-.54-.64-.81-.96c-.28-.31-.56-.62-.85-.93s-.58-.6-.88-.89c-.3-.29-.6-.57-.9-.85-.61-.56-1.25-1.09-1.9-1.6-.33-.25-.66-.5-.99-.74-1.38-1-2.85-1.89-4.37-2.66-.19-.1-.38-.19-.57-.28-.38-.19-.77-.36-1.16-.53-.49-.21-.98-.41-1.48-.6-.5-.19-1-.37-1.51-.53-.61-.2-1.23-.38-1.85-.54-.42-.11-.83-.21-1.25-.3-.31-.07-.63-.13-.95-.19s-.63-.12-.95-.17c-.32-.05-.64-.1-.96-.14-.32-.04-.64-.08-.97-.11-.65-.07-1.29-.11-1.94-.14-.43-.02-.87-.03-1.3-.03-1.27,0-2.53.06-3.79.19-.42.04-.84.1-1.26.15-1.68.24-3.34.6-4.96,1.09-.78.23-1.55.49-2.3.78-.38.14-.76.3-1.13.45s-.74.32-1.11.49c-.73.34-1.45.71-2.16,1.11-.35.2-.7.4-1.05.61s-.69.43-1.02.65c-.34.22-.67.45-1,.68-.74.53-1.45,1.08-2.14,1.67-.23.2-.46.39-.68.59-1.23,1.1-2.37,2.28-3.42,3.55-.8.97-1.55,1.98-2.24,3.03-.23.35-.45.7-.67,1.06-.32.54-.63,1.09-.92,1.65-.27.51-.52,1.03-.76,1.55-.02.05-.05.1-.07.15-.13.3-.26.6-.39.9-.04.09-.07.17-.11.26-.08.2-.16.4-.23.6-.15.4-.3.81-.43,1.22-.07.2-.13.41-.2.61-.13.41-.25.82-.36,1.24-.11.42-.21.83-.31,1.25-.21.95-.38,1.91-.51,2.88-.04.32-.08.65-.11.97-.04.43-.08.86-.1,1.3-.02.3-.03.6-.04.91,0,.14,0,.27,0,.41,0,.13,0,.26,0,.38,0,.39,0,.78.01,1.17.02.5.04,1,.08,1.5.18-.17.37-.34.56-.5.58-.47,1.2-.88,1.87-1.2.31-.15.63-.29.96-.41.33-.12.66-.22,1.01-.3.17-.04.34-.08.52-.11.35-.07.71-.11,1.07-.14.18-.01.36-.03.55-.03-.56-1.81-2.63-8.43-2.68-8.6.31-.55,5.44-9.7,5.67-10.1.07-.12.13-.24.2-.36,0,0,.01-.02.02-.03,0-.01.01-.03.02-.04.01-.03.03-.06.04-.07,0,0,.02,0,.03-.01.02,0,.05,0,.08,0,.01,0,.02,0,.03,0,.01,0,.05,0,.12-.02.1-.01.27-.04.48-.06,1.92-.26,7.77-1.04,7.9-1.05,0,0,.02,0,.03,0,.03,0,.09-.02.1,0,.03.02.06.17.07.21.02.04.24.7.57,1.63.07.21.15.43.23.66.08.23.16.48.25.72.09.25.18.51.27.77.13.39.27.79.41,1.18.09.26.18.52.27.78s.17.5.26.74c.17.48.32.92.45,1.3.07.19.12.36.18.51.11.3.18.53.22.64.02.06.02.1.01.13-.01.03-.04.07-.07.12,0,0-.01.02-.02.03-.02.03-.05.08-.09.14-.04.06-.09.14-.14.24-.08.12-.17.28-.27.45-.03.05-.06.1-.09.15-.11.18-.23.39-.36.61-.23.39-.49.83-.78,1.3-.11.19-.22.38-.34.57-.14.24-.29.48-.43.72-.05.09-.11.18-.16.27-.39.65-.79,1.33-1.19,1.98-.16.26-.31.52-.46.77-.23.38-.45.75-.65,1.1.28-.13.56-.26.85-.4.29-.14.58-.28.88-.42.04-.02.09-.04.13-.05.09-.03.18-.05.28-.05.12,0,.23.01.35.04s.22.09.32.16c.02.02.04.03.07.05.05-.2.11-.37.17-.52.02-.06.05-.11.08-.17.06-.11.15-.2.24-.27.05-.04.1-.07.16-.1.67-.35,1.36-.72,2.06-1.11.04-.02.08-.04.13-.06s.09-.03.13-.04c.09-.02.18-.03.27-.03.06,0,.12,0,.18.02.09.02.19.05.27.1.04.02.09.05.13.08.03.02.06.04.08.07.04-.13.08-.25.12-.36.04-.11.09-.22.13-.31.01-.03.03-.06.04-.09.04-.09.1-.18.17-.25.03-.04.07-.07.11-.1.04-.03.08-.06.13-.09.62-.36,1.23-.71,1.82-1.07-.39-.21-.78-.4-1.17-.59-.51-.25-1.03-.48-1.55-.7-.25-.11-.51-.2-.76-.31-.01,0-.02,0-.03-.01.36.08.73.17,1.09.25.88.2,1.76.41,2.64.61h.03c0-.11,0-.23.03-.37.02-.1.05-.21.09-.32s.09-.22.16-.34c.03-.06.07-.12.12-.17.06-.09.14-.18.22-.26s.18-.18.29-.27c.03-.02.06-.05.09-.07s.07-.05.11-.07c.09-.06.2-.12.32-.18.08-.04.16-.08.24-.12-.87-.19-1.69-.37-2.4-.52-.24-.05-.46-.1-.67-.15-.36-.08-.68-.15-.95-.21-.53-.12-.85-.19-.86-.2-.03-.02-.04-.02-.05-.04,0,0,0-.02-.01-.03,0-.02-.05-.16-.13-.39-.04-.12-.09-.25-.14-.41s-.12-.34-.18-.53c-.04-.12-.08-.24-.13-.37-.02-.07-.05-.13-.07-.2-.05-.15-.11-.31-.17-.48-.11-.33-.24-.68-.36-1.04-.12-.36-.25-.73-.38-1.1-.19-.55-.38-1.11-.57-1.63-.06-.17-.12-.34-.18-.51-.16-.45-.3-.86-.42-1.2-.04-.12-.08-.22-.11-.32-.05-.15-.1-.28-.14-.4-.02-.05-.03-.09-.04-.13-.04-.12-.07-.2-.08-.24-.03-.07-.05-.15-.08-.22v-.03s-.04-.07-.04-.09c0-.01,0-.03.02-.04.01-.01.02-.02.04-.03l.03-.02c.15-.13,1.87-1.57,3.69-3.11.24-.21.49-.41.73-.62.18-.15.35-.3.53-.45.31-.26.61-.51.89-.75.11-.09.22-.19.33-.28.27-.23.53-.45.77-.64.08-.07.17-.14.24-.21.09-.08.18-.15.26-.22.07-.06.14-.11.2-.17.04-.03.08-.06.11-.09.09-.08.17-.14.24-.2.06-.05.11-.1.16-.13.04-.03.06-.05.08-.07h0c.19-.16.37-.32.55-.47.21.01,15.8.71,15.82.72,0,0,.04.1.1.26.02.05.04.12.07.19.01.03.03.07.04.11.04.12.09.25.15.4.04.1.08.2.12.31.08.22.17.46.27.72.05.13.1.26.15.4.13.35.26.72.4,1.1.08.23.17.47.26.7l.09.24c.15.4.3.81.44,1.21.12.32.24.65.35.96.09.24.17.47.25.7.14.38.27.74.39,1.08.05.13.1.27.14.39.02.06.05.12.07.19.09.24.17.46.24.66.2.54.33.9.35.96,0,0-.05.04-.15.12M25.54,38.06s-.04.06-.05.08c-.02.02-.03.04-.04.06-.14.24-.27.49-.41.73-.45.81-.9,1.62-1.36,2.43-.55.99-1.11,1.98-1.66,2.97-.48.85-.95,1.71-1.43,2.56-.23.42-.47.83-.7,1.25v.02c-.08.04-.14.08-.21.12h0c.09-.28.19-.56.29-.83.2-.55.42-1.1.65-1.64.12-.27.24-.54.36-.8.17-.35.34-.71.52-1.05.36-.7.74-1.38,1.15-2.05s.85-1.32,1.31-1.96c.51-.7,1.04-1.38,1.6-2.03,0,0,.01.02.01.03,0,.03-.02.07-.04.12M44.2,28.67c-.12-.03-.24-.05-.37-.07-.12-.01-.25-.02-.38-.02-.06,0-.13,0-.19,0-.13,0-.25,0-.37.01-.71.04-1.41.15-2.11.28-.76.14-1.52.32-2.27.52s-1.49.44-2.22.7c-.16.06-.32.12-.48.18s-.32.13-.47.2c0,0-.03.02-.06.03-.03.02-.07.04-.12.06-.03.02-.06.03-.09.05-.06.03-.12.06-.17.08-.05.02-.08.03-.08.03,0,0,.06-.03.12-.06.04-.03.09-.06.14-.08.02-.01.04-.03.06-.04.02-.01.03-.02.05-.03s.02-.01.02-.01c.37-.2.74-.39,1.11-.58,1.25-.62,2.55-1.16,3.87-1.61.23-.08.47-.16.71-.23.24-.08.47-.15.71-.22.48-.14.96-.26,1.44-.38.43.41.87.82,1.3,1.23-.06-.02-.11-.04-.17-.06M60.45,28.33s-.04.03-.05.05c-.01.01-.03.03-.04.03-.03.02-.06.03-.1.03,0,0-.04,0-.1,0-.04,0-.1,0-.16,0-.07,0-.14,0-.23-.01-.22-.01-.51-.03-.85-.04-.14,0-.28-.01-.43-.02-.15,0-.31-.02-.48-.02s-.34-.02-.52-.03c-.18,0-.37-.02-.56-.03-.19,0-.39-.02-.59-.03-.3-.01-.61-.03-.93-.05-.53-.03-1.08-.05-1.63-.08-.99-.05-2.01-.1-2.96-.15-.53-.03-1.04-.05-1.51-.08-.38-.02-.74-.04-1.08-.05-.25-.01-.48-.02-.7-.04-.14,0-.28-.01-.41-.02-.06,0-.12,0-.18-.01-.18,0-.33-.02-.46-.02-.11,0-.21-.01-.29-.02-.05,0-.09,0-.12,0-.05,0-.07,0-.08,0-.02,0,0,0-.03-.01-.03-.02-.05-.11-.07-.14-.04-.08-.09-.17-.13-.25-.05-.1-.11-.21-.16-.31.34-.05.69-.09,1.04-.13.45-.05.91-.09,1.36-.12,1.37-.09,2.74-.1,4.11-.01.45.03.91.06,1.36.11.34.03.68.07,1.02.12.25.03.51.07.76.11.76.12,1.51.26,2.26.43.74.17,1.48.37,2.21.59.24.08.49.15.73.23h0ZM65.24,33.78c-.05.13-.07.26-.09.4-.01.1-.31,1.99-.31,2.1-.02-.04-.04-.11-.07-.21-.01-.03-.02-.07-.04-.11-.03-.1-.08-.22-.12-.36-.03-.1-.07-.21-.11-.33-.04-.12-.08-.25-.13-.38-.03-.09-.06-.18-.09-.27-.06-.19-.13-.39-.19-.59s-.14-.42-.21-.63c-.11-.32-.21-.65-.32-.98-.07-.22-.14-.44-.21-.65-.49-1.5-.9-2.78-.89-2.78.18.08.38.17.58.27.2.1.41.21.63.32.11.06.22.11.33.17.22.12.44.24.67.37s.45.26.67.39c.19.11.39.23.58.34.28.17.56.34.81.5.26.16.5.32.72.46.45.3.9.6,1.34.92.66.47,1.32.96,1.95,1.48.63.52,1.24,1.05,1.82,1.62.44.43.86.88,1.26,1.35.19.23.37.46.54.71.08.12.16.23.24.35.04.06.08.12.11.18.01.02.04.05.05.08v.02s-.05-.07-.11-.11c-.03-.02-.06-.05-.09-.07-.01,0-.02-.02-.03-.02h-.02c-.23-.22-.47-.42-.71-.61-.75-.63-1.51-1.24-2.3-1.83-.9-.67-1.82-1.32-2.8-1.87-.09-.05-.18-.1-.28-.15-.09-.05-.19-.1-.29-.15-.29-.15-.59-.29-.9-.4-.23-.08-.47-.14-.7-.17-.08-.01-.16-.02-.24-.02-.28-.01-.58.04-.8.22-.03.03-.06.05-.08.08-.09.1-.16.22-.2.35"></path><path class="cls-1" d="M28.38,55.74c-.17-.07-.33-.15-.5-.22-.33-.16-.65-.33-.96-.52-.47-.28-.91-.59-1.34-.94-.25-.2-.48-.41-.71-.63-.34-.33-.67-.68-.97-1.06-.3-.37-.58-.77-.84-1.18l-1.45-2.33,2.89,8.14,4.57-.22c.1-.08.21-.14.33-.19.24-.08.49-.17.75-.27l-.21-.05c-.4-.11-.8-.23-1.18-.38-.13-.05-.26-.1-.38-.15"></path><path class="cls-1" d="M36.76,82.91c-.02-.22-.13-.31-.35-.3-.14.01-.21.02-.36.03.06.81.09,1.22.15,2.03.14-.01.21-.02.35-.03.22-.02.31-.12.3-.34-.04-.55-.06-.83-.1-1.38"></path><path class="cls-1" d="M41.48,85.61c0-.1,0-.19-.01-.28,0-.07,0-.13,0-.2-.01-.3-.03-.58-.04-.86-.02-.5-.05-1.01-.08-1.68-.01-.22-.12-.32-.34-.31-.07,0-.11,0-.18,0-.23.01-.33.12-.32.34.03.69.06,1.21.09,1.72.01.26.03.53.04.81,0,.06,0,.13,0,.19,0,.09,0,.18.01.27,0,.04,0,.08,0,.12,0,.12.01.24.02.36.01.22.12.32.34.31.07,0,.1,0,.17,0,.21-.01.31-.12.3-.34,0-.12-.01-.23-.02-.34,0-.04,0-.08,0-.12"></path><path class="cls-1" d="M54.98,85.01c-.02-.23-.04-.44-.06-.64-.06-.57-.11-1.07-.18-1.81-.11.73-.18,1.22-.27,1.79-.03.2-.06.41-.1.65-.01.07-.02.14-.03.22,0,.04-.01.08-.02.12.28,0,.42.01.69.02,0-.04,0-.08-.01-.12,0-.07-.02-.15-.02-.22"></path><path class="cls-1" d="M46.06,85.55c0-.12,0-.24,0-.35,0-.08,0-.15,0-.22,0-.38-.01-.71-.02-1.06,0-.38-.02-.77-.03-1.27,0-.33-.16-.48-.5-.48-.13,0-.19,0-.32,0,.02.67.03,1.21.04,1.72,0,.36.02.71.03,1.1,0,.07,0,.14,0,.22,0,.11,0,.22,0,.34,0,.04,0,.09,0,.13,0,.17,0,.34.01.53.12,0,.19,0,.31,0,.33,0,.48-.17.47-.5,0-.01,0-.02,0-.03,0-.04,0-.09,0-.13"></path><path class="cls-1" d="M91.03,67.5s-.02,0-.05-.02h-.01s-.02-.01-.02-.01h-.02s0,0,0,0h-.02s-.03-.02-.05-.02h-.01s-.04-.02-.07-.03h0c-.06-.02-.12-.05-.2-.07h0c-.27-.1-.67-.23-1.17-.4-.23-.08-.48-.16-.75-.24-.27-.09-.57-.18-.89-.27-.21-.06-.43-.13-.67-.2-.77-.23-1.65-.47-2.64-.73h0c-.13-.04-.27-.07-.41-.11h0c-.41-.11-.85-.22-1.3-.33-.57-.14-1.17-.28-1.8-.43-.37-.09-.75-.17-1.15-.26-.2-.04-.39-.09-.59-.13-.4-.09-.81-.17-1.23-.25-.21-.04-.42-.08-.63-.13-.29-.06-.57-.11-.87-.17-.58-.11-1.19-.22-1.8-.33-.62-.11-1.25-.21-1.89-.32-.65-.1-1.31-.2-1.98-.3-.16-.02-.33-.05-.5-.07-10.87-1.54-25.38-2.24-41.97.38-.09.01-.18.03-.27.04h0c-1.41.23-2.83.47-4.26.75-.48.09-.96.19-1.44.28-.96.19-1.93.4-2.91.62-.49.11-.98.22-1.47.34-.49.11-.98.23-1.47.35-.05.01-.11.03-.16.04-.1.03-.21.05-.31.08h0c-1.13.28-2.27.58-3.42.9-.05.01-.1.03-.15.04-.53.15-1.07.3-1.61.46-.09.02-.17.05-.26.08-.54.16-1.08.32-1.62.48h0s4.39,17.47,4.39,17.47l17.88,1.82-3.92-4.93,8.23,7.74c1.31,1.04,2.64,2.03,3.96,2.96,1.06.74,2.12,1.45,3.17,2.12.53.34,1.05.66,1.58.98.26.16.52.31.78.47.52.31,1.04.6,1.55.89s1.02.56,1.53.83c.67.35,1.34.69,2,1.01.66-.32,1.32-.66,2-1.01,1.05-.55,2.13-1.15,3.22-1.8.54-.32,1.09-.65,1.64-1,.55-.34,1.1-.69,1.65-1.06.28-.18.55-.37.83-.55.28-.19.55-.38.83-.57.28-.19.55-.39.83-.58.55-.39,1.11-.8,1.66-1.21.55-.41,1.1-.83,1.65-1.27.27-.22.55-.43.82-.65l7.76-7.3-2.38,2.99-1.9,2.38,16.87-2.27,5.42-17.47ZM24.23,81.53c-1.05-1.87-2.13-3.72-3.25-5.55-.29.06-.49.11-.71.16-.18.04-.36.08-.6.14.52,2.22.8,3.41,1.28,5.5.03.14.07.29.1.44-1,.23-1.5.35-2.49.59-1.24-4.95-2.51-9.9-3.82-14.84.58-.14,1.06-.26,1.52-.37.9-.22,1.67-.39,2.83-.64,2.56-.56,4.45.04,4.89,2.32.21,1.07.32,1.61.53,2.68.28,1.44-.19,2.46-1.19,3.13,1.19,1.95,2.34,3.93,3.45,5.92,0,.01.01.02.02.03-1.03.19-1.54.29-2.56.49M34.43,76.44c-1.15.14-1.73.21-2.88.38-.03,1.38-.04,2.07-.06,3.46-.94.14-1.44.21-2.34.36-.03,0-.07.01-.1.02.12-5.2.32-10.39.6-15.58,1.43-.2,2.15-.3,3.58-.47l.13.38c1.51,4.4,2.93,8.81,4.27,13.25.13.42.25.84.38,1.26-.02,0-.03,0-.05,0-1.01.1-1.53.15-2.55.27,0-.03-.02-.06-.02-.09-.33-1.14-.52-1.8-.83-2.86-.04-.12-.07-.24-.11-.38M37.69,84.65c-.08.44-.39.68-.95.72-.19.01-.29.02-.49.04,0,.01,0,.02,0,.04,0,.05,0,.1.01.15,0,.07.01.13.01.19,0,.03,0,.06,0,.09.04.52.07.9.11,1.52-.34.02-.51.04-.84.06-.05-.58-.09-1.09-.12-1.56,0-.03,0-.06,0-.09,0-.06,0-.12-.01-.18,0-.05,0-.09-.01-.14-.02-.21-.03-.42-.05-.63-.07-.88-.14-1.74-.23-2.91.54-.04.82-.06,1.36-.1.71-.05,1.08.27,1.12.95.04.58.06.88.1,1.46.01.14,0,.26-.02.37M50.01,81.34c.17,0,.25,0,.42,0,.71,0,1.05.34,1.04,1.02,0,.45,0,.68,0,1.13-.34,0-.51,0-.84,0,0-.43,0-.65,0-1.08,0-.22-.1-.32-.32-.32h-.15c-.23,0-.33.1-.33.32,0,.68,0,1.2,0,1.71,0,.27,0,.54,0,.82v.94c0,.22.1.32.33.32h.16c.21,0,.32-.1.32-.32,0-.07,0-.14,0-.2v-.13c0-.14,0-.26,0-.38,0-.07,0-.15,0-.23,0-.09,0-.19,0-.3.34,0,.5,0,.84,0,0,.11,0,.21,0,.3,0,.08,0,.15,0,.23,0,.13,0,.25,0,.39,0,.04,0,.09,0,.13,0,.07,0,.15,0,.24,0,.68-.35,1.02-1.03,1.02-.17,0-.25,0-.42,0-.69,0-1.03-.34-1.03-1.02,0-.09,0-.17,0-.25,0-.04,0-.09,0-.13,0-.13,0-.25,0-.37,0-.08,0-.15,0-.23,0-.31,0-.59,0-.87,0-.51,0-1.03,0-1.71,0-.68.34-1.03,1.05-1.03M44.29,63.7c2.63-.11,4.19.97,4.22,2.9,0,.03,0,.07,0,.1.01.7.02,1.09.03,1.82.02,1.09-.48,2.26-1.8,2.45.4.05.72.16.98.33.7.43.97,1.2.98,2.06,0,.1,0,.2,0,.29.01.82.02,1.32.03,2.22.03,1.93-1.47,3.03-3.81,3.13-1.59.07-2.39.12-3.97.23-.01,0-.03,0-.04,0-.38-5.09-.77-10.18-1.17-15.27,1.81-.13,2.72-.19,4.53-.26M41.37,87.14c-.18,0-.27.01-.45.02-.69.03-1.04-.28-1.08-.97,0-.15-.02-.29-.02-.43,0-.04,0-.08,0-.11,0-.09,0-.17-.01-.25,0-.06,0-.12-.01-.18-.01-.27-.03-.52-.04-.77-.03-.54-.06-1.08-.1-1.8-.04-.68.29-1.04,1-1.08.19,0,.28-.01.46-.02.71-.03,1.07.29,1.1.98.03.66.05,1.17.07,1.67.01.29.02.59.04.9,0,.07,0,.13,0,.2,0,.1,0,.19.01.3,0,.04,0,.08,0,.12,0,.12.01.23.01.36.03.68-.3,1.04-.98,1.07M44.52,92.75l-.79-.42-.79.42.1-.05-.08-.06.13-.77-.64-.62.88-.13.4-.8.4.8.88.13-.64.62.15.88ZM45.72,86.95c-.51.01-.76.02-1.27.03-.01-.47-.03-.89-.04-1.29,0-.04,0-.09,0-.13,0-.11,0-.22-.01-.33,0-.07,0-.14,0-.21-.01-.35-.02-.69-.03-1.03-.02-.75-.05-1.52-.08-2.52.52-.02.78-.02,1.31-.03.85-.02,1.25.37,1.26,1.18,0,.53.02.95.02,1.35,0,.33.01.64.02,1,0,.07,0,.15,0,.22,0,.11,0,.23,0,.35,0,.04,0,.09,0,.13,0,.01,0,.03,0,.04.01.81-.37,1.21-1.19,1.23M51.8,91.72l-.45.43-.06.06.3,1.77-1.59-.84-1.59.84.3-1.77-.06-.06-.45-.43-.78-.76.94-.14.85-.12.8-1.61.8,1.61.85.12.94.14-.79.76ZM54.09,86.94c-.31,0-.47-.01-.78-.02.07-.44.14-.84.2-1.21,0-.04.01-.08.02-.12.02-.13.04-.26.06-.39.01-.08.02-.15.04-.22.04-.23.07-.45.11-.67.14-.87.29-1.72.48-2.88.46.01.69.02,1.15.03.14,1.19.24,2.06.35,2.95.02.21.05.42.07.63,0,.07.02.14.02.21.01.13.03.26.04.39,0,.04,0,.08.01.12.04.38.09.79.14,1.24-.33-.01-.5-.02-.84-.03-.03-.35-.05-.52-.09-.87-.35-.01-.53-.01-.88-.02-.05.35-.07.52-.12.86M57.06,92.75l-.79-.42-.79.42.15-.88-.64-.62.88-.13.4-.8.4.8.88.13-.64.62.15.88ZM60.52,82.65c-.02.4-.03.6-.06,1-.34-.02-.51-.03-.84-.04.02-.39.03-.58.05-.97.01-.21-.09-.32-.31-.33-.04,0-.06,0-.11,0-.22-.01-.33.09-.34.3-.01.25-.02.37-.03.61-.01.23.06.34.22.46.33.26.5.4.83.67.12.1.22.19.29.29.12.17.17.37.16.63,0,.02,0,.04,0,.06,0,.04,0,.08,0,.12,0,.13-.01.23-.02.34,0,.03,0,.06,0,.1,0,.1-.01.21-.02.34-.04.68-.4,1-1.08.97-.15,0-.22-.01-.37-.02-.69-.03-1-.38-.97-1.06,0-.11,0-.21.01-.3,0-.04,0-.07,0-.11,0-.13.01-.25.02-.37,0-.06,0-.13,0-.2,0-.06,0-.12,0-.19.33.01.5.02.83.04,0,.07,0,.13,0,.19,0,.07,0,.13,0,.19,0,.12-.01.24-.02.36,0,.03,0,.07,0,.1,0,.09,0,.18-.01.28-.01.21.09.32.31.33.04,0,.07,0,.11,0,.22.01.33-.09.34-.3,0-.12.01-.21.02-.3,0-.03,0-.07,0-.1,0-.11.01-.21.02-.35h0c0-.08,0-.13-.02-.19-.03-.11-.09-.19-.2-.28-.19-.15-.32-.26-.46-.37-.11-.09-.23-.18-.37-.3-.37-.29-.47-.55-.46-.97.01-.3.02-.45.03-.76.03-.68.39-1.01,1.1-.97.15,0,.22.01.37.02.7.04,1.03.4.99,1.07M61.15,66.99c-.23,3.05-.45,6.11-.68,9.16-.03.41-.11.76-.22,1.08-.54,1.48-1.97,2.01-3.91,1.93-.07,0-.11,0-.18,0-2.34-.09-3.88-1.02-3.86-3.34.04-3.06.07-6.12.11-9.19,0-.08,0-.16,0-.23.14-2.16,1.86-2.99,4.4-2.89.08,0,.12,0,.2,0,2.63.11,4.3,1.16,4.12,3.47M64.81,82.73c-.31-.02-.46-.04-.78-.06-.06.84-.11,1.5-.16,2.13-.02.23-.03.47-.05.71,0,.04,0,.09-.01.14,0,.09-.01.18-.02.27,0,.02,0,.05,0,.07-.03.42-.07.88-.11,1.41h0s-.05,0-.07,0c-.29-.02-.46-.03-.77-.06.04-.52.07-.97.1-1.39,0-.03,0-.05,0-.08,0-.1.01-.2.02-.29,0-.05,0-.1.01-.15.02-.23.03-.45.05-.68.04-.64.09-1.3.15-2.15-.31-.02-.47-.03-.78-.05.02-.31.03-.46.05-.76.97.06,1.46.1,2.43.18-.03.3-.04.45-.06.76M72.12,80.59s-.07-.01-.1-.02c-.89-.14-1.37-.22-2.3-.35-.64-3.45-1.37-6.89-2.16-10.32-.07.56-.14,1.12-.2,1.67-.33,2.73-.66,5.47-.99,8.21-.03,0-.05,0-.08,0-.88-.1-1.35-.15-2.25-.24.5-4.94,1.01-9.87,1.53-14.81.01-.14.03-.28.04-.42,1.14.11,1.71.18,2.86.31.68,2.79,1.31,5.59,1.9,8.4.1.48.2.96.3,1.44.46-3.08.92-6.15,1.39-9.22,0-.05.01-.09.02-.14,1.04.15,1.56.23,2.59.4-.87,5.03-1.71,10.07-2.54,15.1M83.83,83.03c-1.01-.26-1.52-.38-2.53-.62.02-.23.03-.45.05-.65.07-.98.12-1.65.19-2.8-.11-.03-.22-.05-.33-.08-.92-.21-1.49-.33-2.51-.55-.51,1.29-.75,1.93-1.25,3.23-.97-.2-1.46-.29-2.43-.47.02-.05.04-.1.06-.15,1.87-4.8,3.86-9.55,5.97-14.27.86.18,1.46.31,2.11.45.42.09.86.2,1.41.32-.18,5.2-.43,10.39-.75,15.59"></path><path class="cls-1" d="M79.64,75.95c-.05.13-.11.27-.16.4.88.19,1.32.28,2.2.48.15-2.29.29-4.59.41-6.88-.35.82-.69,1.64-1.02,2.46-.48,1.17-.96,2.35-1.43,3.54"></path><path class="cls-1" d="M21.33,70.2c-.23-1.07-.92-1.24-1.82-1.04-.09.02-.16.04-.24.05-.43.09-.71.16-1.21.27.45,1.86.67,2.8,1.11,4.66.56-.13.84-.19,1.4-.31.45-.1.81-.26,1.02-.54.2-.26.27-.63.16-1.15-.17-.78-.25-1.17-.42-1.95"></path><path class="cls-1" d="M46.43,4.63c0,.1.05.15.15.15h.07c.1,0,.14-.05.14-.15v-.07s0-.51,0-.51c0-.11-.05-.15-.15-.15-.07,0-.15.02-.2.04v.61s.01.08.01.08Z"></path><path class="cls-1" d="M47.99,3.75s.02,0,.03,0c.04,0,.08-.01.11-.02.02,0,.04-.01.05-.02v-.64s-.01-.08-.01-.08c0-.1-.05-.15-.15-.15h-.06c-.1,0-.14.05-.14.15v.61c.01.11.05.15.16.15"></path><path class="cls-1" d="M31.79,67.79c-.08,2.3-.15,4.59-.2,6.89.14-.02.27-.04.4-.05.65-.09,1.09-.15,1.84-.24-.48-1.6-.96-3.19-1.46-4.78-.19-.61-.38-1.22-.58-1.82"></path><path class="cls-1" d="M43.19,70.08c.49-.03.79-.04,1.34-.07.78-.03,1.27-.42,1.24-1.23-.03-.7-.04-1.06-.06-1.75,0,0,0-.01,0-.02-.03-.81-.56-1.16-1.36-1.13-.63.03-.95.04-1.59.08.1,1.65.14,2.48.24,4.13.07,0,.14,0,.2-.01"></path><path class="cls-1" d="M44.72,72.16c-.64.03-.97.04-1.61.08.1,1.86.16,2.79.26,4.65.02,0,.04,0,.07,0,.58-.03.89-.05,1.49-.07.74-.03,1.2-.42,1.18-1.23-.03-.85-.05-1.31-.07-2.1,0-.06,0-.12,0-.19-.03-.81-.53-1.16-1.3-1.13"></path><path class="cls-1" d="M56.83,65.74c-.87-.04-1.49.21-1.59,1.14,0,.07-.01.13-.01.2-.09,2.8-.18,5.6-.27,8.39-.03,1.09.54,1.42,1.4,1.45.64.03,1.14-.12,1.37-.66.08-.18.12-.4.14-.67.15-2.8.3-5.59.45-8.39.06-1.09-.56-1.43-1.49-1.47"></path><path class="cls-3" d="M51.51,5.82s.05.03.08.05c.03,0,.07-.01.1-.01.06,0,.13.01.18.05.83.44.92,1.69.89,2.41.15.15.27.45.28.97.02.66-.17.99-.39,1.15-.02.1-.05.2-.07.29-.05.21-.12.49-.13.63h0c.01.15.04.4.06.63.04.01.08.02.12.03.18-.09.38-.14.59-.14.04,0,.08,0,.12,0,0-.03-.01-.05-.02-.08-.1-.46-.2-.94-.27-1.43-.02-.13-.04-.3-.03-.48,0-.11,0-.22.03-.33-.02-.23.02-.48.15-.73.04-.22.14-.45.31-.67.07-.09.22-.23.52-.23.25,0,.53.11.7.2.51.27.5.64.46.79,0,.02-.01.05-.02.07.04.11.04.22.02.33,0,.04-.02.08-.03.11.02.09.02.19,0,.28-.02.08-.05.15-.08.21.01.08.01.15,0,.23-.03.14-.1.27-.19.36.05.11.11.22.16.33.01,0,.02,0,.03,0,.02,0,.04,0,.06,0,.23-.22.51-.4.89-.65,0,0,.28-.18.35-.22.15-.92.83-2.86,1.35-4.27-.11.02-.21.03-.32.05-.4.07-.86.14-1.3.14-.05,0-.09,0-.14,0-.62-.02-1.97-.04-3.27-.06,0,0-1.11-.02-1.2-.02"></path><path class="cls-3" d="M34.84,20.68c.04-.23.07-.46.08-.7,0-.03,0-.05,0-.07-.32-.15-.24-.62-.09-1.41.01-.08.02-.13.03-.16h0c-.25.25-.55.64-.53.99.02.42,0,.87-.04,1.24.19,0,.37.05.55.1"></path><path class="cls-3" d="M55.95,17.88c-.11-.14-.22-.28-.32-.44-.12-.19-.2-.44-.22-.73h-.01c-.02.09-.02.18-.01.28.05.43.05.89.04,1.31.2-.14.44-.22.68-.23-.04-.06-.09-.11-.13-.17l-.02-.02Z"></path><path class="cls-3" d="M25.17,18.02c.12.04.24.06.37.08.16.03.32.06.48.11.35.12.74.26.98.55.15.18.26.36.35.55.04.09.06.17.08.24-.01-.11-.02-.22-.03-.33,0-.05,0-.1-.02-.14-.09-.67-.39-1.04-.68-1.41l-.02-.02c-.11-.14-.22-.28-.32-.44-.12-.19-.2-.44-.22-.73-.24-.22-.52-.53-.74-.82.02.17.03.31.03.42.07.13.1.3.1.54,0,.38-.13.58-.26.7,0,.03-.03.11-.03.11-.03.1-.07.22-.07.27,0,.04,0,.09,0,.13,0,.06,0,.14,0,.18"></path><path class="cls-3" d="M43.9,9.62c.08.07.24.18.33.24.25.18.59.42.88.7.11,0,.22.03.34.06.11-.24.2-.5.23-.78.02-.13,0-.28-.03-.44-.02-.15-.04-.31-.04-.47,0-.5.31-1.05.86-1.09.02,0,.04,0,.06,0,.24,0,.44.1.57.17.2.1.65.33.78.77.05-.08.1-.14.16-.19.04-.03.08-.06.12-.08-.08-.76,0-1.37.26-1.82-.03-.04-.05-.08-.06-.13-.04-.14,0-.29.11-.39.04-.04.08-.07.12-.09v-.02c-.02-.1.01-.2.07-.28-1.51,0-2.55.12-2.93.17-.29.04-.58.09-.9.14h-.03c-.53.09-1.02.18-1.45.18-.03,0-.07,0-.1,0-.29,0-.53-.06-.74-.11h0c.71,1.25,1.06,1.92,1.26,2.59.13.44.14.69.14.88"></path><path class="cls-3" d="M45.53,17.34c0-.07-.02-.13-.03-.2-.06-.3-.15-.58-.28-.84-.1.1-.21.2-.31.29-.03.29-.11.54-.24.74-.11.16-.24.31-.36.46h0c.12-.05.26-.08.4-.08.33,0,.64.15.82.41.19.26.22.56.24.83.02.18.03.36.1.45h0c-.02-.1-.08-.48-.08-.48-.09-.53-.18-1.07-.25-1.57"></path><path class="cls-3" d="M91.44,66.44l-.11-.04-.41,1.07h.02s.02.02.02.02h.01s.05.02.05.02h0l-5.42,17.47-16.87,2.27,1.9-2.38,2.38-2.99h0l-7.76,7.3c-.27.22-.55.44-.82.65-.55.43-1.1.85-1.65,1.27-.55.41-1.11.81-1.66,1.21-.28.2-.55.39-.83.58-.28.19-.55.38-.83.57-.28.19-.55.37-.83.55-.55.36-1.1.72-1.65,1.06s-1.1.67-1.64,1c-1.09.64-2.16,1.24-3.22,1.8-.67.35-1.34.69-2,1.01-.66-.32-1.32-.66-2-1.01-.51-.27-1.02-.54-1.53-.83s-1.03-.58-1.55-.89c-.26-.15-.52-.31-.78-.47-.52-.32-1.05-.64-1.58-.98-1.05-.67-2.11-1.38-3.17-2.12-1.33-.93-2.65-1.92-3.96-2.96l-8.23-7.74h0l3.93,4.93-17.88-1.82-4.39-17.47h0c.54-.17,1.08-.33,1.62-.48.09-.02.17-.05.26-.08.54-.16,1.07-.31,1.61-.45.05-.01.1-.03.15-.04,1.15-.32,2.29-.61,3.42-.9h0s-.66.07-.66.07h0c0-.12.01-.23.02-.35,0-.03,0-.07.01-.11.01-.09.02-.17.04-.26,0-.04.01-.07.02-.11.02-.1.04-.19.06-.29,0-.02.01-.05.02-.07.03-.13.07-.25.11-.38h0c.04-.13.09-.25.13-.37,0-.02.02-.04.03-.07.04-.11.09-.21.14-.32,0-.02.02-.04.03-.06.12-.26.26-.51.42-.76h0c.68-1.09,1.69-2.1,2.98-2.82,1.3-.73,2.88-1.17,4.68-1.13,0,0,.55.19,1.25.68,0,0-3.3-.13-5.93,1.59-1.41.92-2.63,2.38-3.05,4.68.05-.01.11-.03.16-.04h0c.52-1.07,1.92-3.45,4.58-4.64.89-.4,1.91-.66,3.09-.71.73-.03,1.51.03,2.35.19.61.68,1.18,1.6,1.52,2.82.09-.01.18-.03.27-.04-.23-1.16-.73-2.44-1.75-3.52-.33-.35-.72-.68-1.17-.98.79-.04,1.69-.21,2.67-.47-.05.43-.05.8-.03,1.11,0,.08.01.15.02.22.06.56.69.86,1.18.57l.19-.11c.28-.17.42-.49.36-.81-.02-.09-.03-.18-.04-.26-.06-.47-.06-.89-.02-1.24.75-.26,1.53-.56,2.32-.89-.08.59-.07,1.08-.02,1.47,0,.04.01.08.03.12.13.48.7.72,1.15.45l.19-.11c.25-.15.39-.44.37-.73,0-.03,0-.05,0-.08-.14-.76-.1-1.39,0-1.87.69-.32,1.38-.65,2.06-.98-.14.77-.14,1.39-.09,1.87.03.23.15.42.32.54.24.17.57.21.86.03l.19-.11c.09-.06.17-.13.23-.21.12-.17.17-.38.14-.6-.2-1.12-.03-1.93.17-2.44.73-.38,1.43-.75,2.08-1.12-.16.81-.16,1.47-.1,1.97.06.56.69.86,1.18.57l.19-.11c.28-.17.42-.49.36-.81-.24-1.32.05-2.22.28-2.69.76-.44,1.42-.83,1.94-1.14.65.37,1.5.69,2.59.93,6.24,1.35,11.13-2.7,11.13-2.7-10.79,4.46-12.48,1.01-12.48,1.01l-.59-.72c-.06-.28.03-.63.51-1.02,1.24-1.01,14.84-5.17,16.08-4.83.94.26,2.02,2.08,2.27,3.68,1.12.87,2.75,2.06,4.51,3.07,2.55,1.47,5.37,2.57,7.27,1.78,2.37-1,3.35-3.02,4.05-4.37.56-1.08.93-1.72,1.69-1.02.12.11.26.3.41.54.19.3.4.69.62,1.16-.31-.22-.83-.1-1.66,1.06-1.86,2.6-4.89,8.07-13.41,3.95,0,0,6.83,5.14,12.06-.84,0,0,2.98-4.39,3.48-3.11.09.22.18.45.27.68h0c.05.12.09.25.14.38v.03c.06.12.1.25.15.38,0,.01,0,.02.01.03.05.13.09.26.14.4v.02c.05.14.1.28.15.42h0c.07.21.14.43.2.65v.02c.14.43.26.88.39,1.34,0,.03.02.06.02.09.05.19.1.39.15.59.01.04.02.08.03.12.11.45.21.9.3,1.36.01.06.02.12.03.18.03.17.07.34.1.52.01.07.02.13.03.2.04.23.08.46.11.69-1.27.04-6.41.37-11.38,3.38h.02s-15.62-6.97-31.61-.63c1.22-.47,14.17-5.14,31.01,1l.05-.03c-.72.47-1.43.99-2.12,1.58.17.02.33.05.5.07,3.04-2.38,7.59-4.8,13.59-4.92.02.17.04.33.06.5.01.09.02.17.03.26,0,.08.02.16.03.24.01.12.02.23.03.35,0,.05,0,.1.01.14.01.14.02.27.03.41,0,.03,0,.06,0,.09,0,.15.02.3.02.45,0,.01,0,.03,0,.04,0,.16.01.32.01.47h0c0,.23,0,.45,0,.66,0,.16,0,.33-.02.49,0,.06,0,.12-.01.19,0,.05,0,.1,0,.14,0,.07,0,.14-.01.21,0,.03,0,.05,0,.08,0,.03,0,.07,0,.11-.01.16-.03.31-.05.47,0,.03,0,.06-.01.09-.02.16-.04.31-.07.46h0s0,.04,0,.06c0,.03-.01.07-.02.1-.02.12-.04.24-.07.36,0,.03-.01.07-.02.1,0,.02,0,.04-.01.06-.02.08-.04.16-.06.24s-.04.16-.06.24h0c-.04.16-.09.31-.13.47,0,.01,0,.03-.01.04h0s0,.03,0,.03h0c.14.04.28.07.41.11h0c.98.26,1.86.51,2.64.73.23.07.45.13.67.2.32.1.61.19.89.27.27.09.53.17.75.24.51.17.9.3,1.17.4h0c.08.03.14.05.2.07h0s.05.02.07.03h.01s.03.02.05.02h.02s0,0,0,0l.38-1.08h-.03s0,0,0,0h-.02s0-.01,0-.01l-.3-.11c-.35-.13-.77-.27-1.2-.41-.23-.08-.49-.16-.77-.25-.28-.09-.58-.18-.9-.28-.22-.07-.44-.13-.67-.2-.64-.19-1.31-.38-1.98-.56v-.02s.02-.06.02-.11c.03-.13.05-.26.08-.41,0-.03.01-.06.02-.09v-.07c.04-.16.06-.33.08-.5v-.1c.03-.17.05-.33.06-.5v-.12s.03-.25.03-.25l.02-.41c0-.17.01-.35.02-.52,0-.23,0-.46,0-.67v-.03c0-.17,0-.33-.01-.49v-.05c0-.16-.01-.31-.02-.47v-.09c-.02-.14-.02-.28-.03-.42l-.02-.22c0-.1-.02-.2-.03-.3,0-.06-.05-.45-.06-.52-.02-.17-.04-.35-.07-.52,0-.04-.01-.08-.02-.12l-.04-.34c-.04-.24-.08-.48-.12-.71l-.04-.21c-.03-.18-.07-.36-.1-.53l-.04-.19c-.09-.46-.2-.94-.31-1.4l-.03-.13c-.05-.2-.1-.4-.15-.6l-.02-.09c-.12-.46-.25-.92-.39-1.38v-.02c-.07-.23-.14-.45-.22-.67-.05-.15-.1-.29-.14-.42v-.04c-.06-.14-.11-.28-.15-.41v-.03c-.06-.13-.11-.26-.15-.4l-1.08.39,1.07-.42c-.05-.13-.1-.26-.15-.39-.06-.16-.13-.32-.19-.48l.26-3.04s0-.06,0-.08c.05-4.4.24-18.89.3-20.29.01-.27.02-.45.03-.56.02-.03.05-.06.07-.08.2-.23.48-.54.66-.99.18-.44.21-.86.22-1.13l.14-2.12c.02-.24.04-.66-.12-1.12-.04-.15-.1-.29-.18-.42-.35-.56-.98-.91-1.64-.91-.55,0-1.06.24-1.41.68-.33.42-.39.87-.4,1.02,0,.03,0,.05,0,.08-.04,0-.08,0-.12,0-.21,0-.41.03-.6.08-.09-.17-.21-.33-.34-.47.04-.08.08-.17.11-.26.21-.18.48-.42.7-.68.2-.14.38-.31.53-.54.21-.31.33-.66.38-1.09.29-.63.5-1.26.7-1.88.2-.62.37-1.15.63-1.67.09-.18.27-.55.26-1.03,0-.74-.41-1.36-1.19-1.85-.18-.11-.59-.36-1.16-.36-1.02,0-1.88.83-1.99,1.94-.02.23-.01.43,0,.57,0,.04,0,.08,0,.11-.06.2-.26.51-.46.81-.29.43-.62.92-.83,1.54,0,.01,0,.02-.01.03-.03-.1-.07-.19-.11-.27-.01-.73-.24-1.39-.65-1.88-.47-.57-1.16-.88-1.94-.88-.17,0-.35.01-.52.04-.18.03-.36.08-.54.14,0-.01,0-.02,0-.04-.02-.18-.07-.36-.16-.53,0-.3-.03-.73-.1-1.14-.17-1.06-.8-1.54-1.44-1.67-.23-.1-.47-.16-.72-.16-.11,0-.22.01-.33.03-.01,0-.03,0-.04,0-.04,0-.07,0-.11,0-.13-.28-.32-.52-.57-.7l-.02-.02c-.26-.18-.57-.29-.89-.3-.12-.02-.23-.04-.35-.04-.14,0-.27.02-.42.05-.01,0-.02,0-.03,0-.12-.28-.3-.53-.52-.74-.52-.47-1.13-.55-1.33-.58-.09-.01-.22-.03-.37-.03-.19,0-.38.02-.56.07-.64.17-1.15.64-1.42,1.27-.23.55-.26,1.23-.09,1.82-.03.15-.05.3-.07.44-.01.09-.03.24-.05.31-.15.38-.31.76-.46,1.14-.05.14-.11.28-.17.43-.13.33-.29.7-.42,1.1-.02-.12-.05-.25-.1-.38,0-.22,0-.47-.04-.73-.03-.26-.09-.5-.19-.72-.19-.47-.49-.85-.88-1.1-.12-.08-.26-.14-.4-.18-.3-.17-.63-.26-.97-.26h-.02c.08-.33.16-.67.23-.99.46-.09.86-.39,1.07-.81.15-.29.27-.57.38-.89.07-.2.13-.29.18-.36.1-.13.22-.27.38-.43.13-.14.29-.31.44-.49.41-.5.46-1.21.13-1.77-.03-.05-.11-.19-.17-.28-.05-.6-.2-1.23-.91-1.9-.1-.29-.25-.52-.37-.67-.16-.21-.36-.38-.6-.51-.21-.21-.47-.36-.75-.45-.31-.21-.68-.33-1.06-.33-.09,0-.18,0-.28.02-.13-.02-.27-.04-.42-.04-.34,0-.68.1-.98.28-.05.03-.1.07-.15.1-.18,0-.37,0-.57,0-.82,0-1.66.05-2.4.09h-.04c-.56.03-1.04.06-1.41.06-.1,0-.19,0-.28,0-.63-.04-2.16-.06-3.81-.06-2.57,0-5.79.05-7.26.28-.16-.04-.32-.07-.48-.07-.07,0-.14,0-.23.02-.42.06-.81.19-1.14.4-.36.15-.68.37-.92.64-.24.18-.43.4-.57.65v.02c-.11.11-.2.24-.28.37-.21.36-.25.75-.24,1.14-.5.72-.88,1.38-1.02,1.66-.02.05-.05.1-.07.17v.03c-.11.24-.15.5-.12.75-.09.01-.17.03-.25.05-1.2.32-1.88,1.64-1.54,3.01,0,.03.02.06.03.09-.03.15-.05.3-.07.43-.01.09-.04.24-.05.32-.16.38-.31.77-.46,1.14-.05.14-.11.27-.17.43-.14.34-.29.71-.42,1.1-.02-.12-.05-.25-.1-.37.03-1.49-.58-2.21-1.12-2.55-.12-.08-.26-.14-.4-.18-.3-.17-.63-.26-.97-.26h-.02c-.29-.09-.58-.13-.88-.13s-.57.04-.84.12c-.46.14-.82.47-.99.9-.18.25-.27.55-.28.86-.11.3-.18.63-.2,1-.11.18-.21.4-.26.68-.05-.05-.1-.09-.15-.13,0-.06-.02-.12-.03-.18-.05-.63-.34-1.19-.55-1.62-.04-.08-.08-.15-.1-.21-.1-.23-.21-.45-.32-.67.01-.05.02-.09.03-.14.02-.09.03-.18.04-.27.02-.06.03-.12.05-.18.03-.14.04-.29.04-.44.03-.17.04-.35.02-.53.06-.6-.18-1.39-1.07-1.86-.19-.1-.68-.33-1.25-.33s-1.1.25-1.44.69c-.24.32-.4.65-.49.99-.14.34-.21.68-.21,1.02-.02.14-.03.27-.03.41,0,.26.02.49.04.63.07.53.18,1.02.28,1.51.04.2.09.41.13.61.06.31.13.61.2.89-.42.11-.8.34-1.09.67-.28.31-.48.69-.59,1.13-.12-.28-.26-.54-.4-.78-.12-.22-.27-.48-.31-.63,0-.02,0-.03,0-.05.02-.13.04-.31.04-.52-.01-1.07-.78-1.94-1.76-2.02-.05,0-.11,0-.16,0-.46,0-.81.17-.98.26-.95.49-1.21,1.17-1.26,1.67-.05.48.1.86.17,1.01.17.43.28.89.4,1.43.12.51.25,1.08.45,1.64.01.4.1.74.27,1.03.12.21.27.4.45.54.16.23.35.43.52.6.02.06.04.11.06.17-.12.03-.23.07-.34.12-.28-.32-.65-.55-1.07-.65-.14-.03-.28-.05-.42-.05-1.01,0-1.89.8-2.01,1.83-.1.85.32,1.4.48,1.61v.02c.07.12.12.26.19.41.16.4.36.91.75,1.41.38.5.65,1.1.85,1.88.02.49.07,3.04.2,15.26l-.13,5.47v.03c-.06.13-.11.27-.15.41-.07.21-.14.42-.2.64-.13.42-.26.86-.37,1.28-.11.43-.22.86-.32,1.3-.22.98-.4,1.99-.52,2.98-.04.33-.08.67-.11,1-.04.44-.08.89-.11,1.34-.02.31-.03.63-.04.94,0,.14,0,.28-.01.43,0,.13,0,.26,0,.39,0,.4,0,.81.01,1.22.02.57.04,1.04.07,1.49l-.04,1.17c-.12.16-.22.32-.32.48-.18.28-.34.57-.48.87l-.02.04,1.04.48-1.05-.46c-.06.12-.11.25-.17.39l-.02.06c-.05.14-.11.28-.15.42h0c-.05.16-.09.31-.13.46l-.02.08c-.03.12-.05.23-.08.35,0,.05-.02.09-.02.13,0,.03-.01.07-.02.1-.69.18-1.35.35-1.99.53l-.16.04c-.54.15-1.08.3-1.62.46l-.26.08c-.54.16-1.08.32-1.62.48-.26.08-.49.24-.64.47-.18.27-.23.6-.15.91l4.39,17.47c.12.47.52.81,1,.86l17.88,1.82s.08,0,.12,0c.23,0,.46-.07.65-.2l2.87,2.7s.05.04.07.06c1.31,1.03,2.66,2.04,4.02,3,1.06.74,2.14,1.47,3.22,2.15.53.34,1.06.67,1.6.99.26.16.53.32.79.47.53.31,1.06.61,1.57.9.52.29,1.04.57,1.55.84.7.37,1.38.71,2.03,1.03.16.08.33.11.5.11s.34-.04.5-.11c.65-.31,1.33-.66,2.03-1.03,1.08-.57,2.18-1.18,3.27-1.82.56-.33,1.12-.67,1.66-1.01.55-.34,1.12-.71,1.67-1.07.28-.18.56-.37.84-.56.28-.19.56-.38.84-.57.28-.19.56-.39.84-.59.56-.4,1.13-.81,1.68-1.22.56-.42,1.12-.85,1.67-1.28.28-.22.56-.44.83-.66.02-.02.04-.04.07-.06l1.98-1.86c.2.16.45.25.71.25.05,0,.1,0,.15-.01l16.87-2.27c.44-.06.81-.37.94-.8l5.42-17.47c.18-.57-.12-1.19-.68-1.41M29.41,56.6c-.12.04-.23.11-.33.19l-4.57.22-2.89-8.14,1.45,2.33c.26.41.54.8.84,1.18.3.37.63.73.97,1.06.23.22.47.43.71.63.42.34.87.66,1.34.94.31.19.63.36.96.52.16.08.33.15.5.22.13.05.25.1.38.15.38.15.78.27,1.18.38l.21.05c-.26.1-.51.19-.75.27M17.55,23.47c-.29-.38-.44-.76-.59-1.13-.07-.18-.14-.36-.23-.53-.02-.05-.06-.1-.11-.16-.12-.16-.3-.4-.25-.79.05-.45.44-.82.87-.82.06,0,.11,0,.16.02.28.07.52.28.63.58.08.22.09.44.09.65v.06c0,.1,0,.2.01.26.02.08.1.18.19.27l.05.06c.21.24.38.42.52.56-.17-.25-.36-.56-.35-.94.03-.55.52-1.01,1.08-1.02.52,0,.99.35,1.15.86.03.09.05.17.06.26.08-.1.17-.2.27-.28-.03-.25-.06-.49-.08-.73,0-.03,0-.07-.01-.1-.07-.45-.28-.7-.5-.96-.09-.11-.19-.22-.27-.34-.1-.14-.16-.32-.19-.53-.24-.22-.56-.54-.72-.82-.1-.05-.2-.14-.28-.29-.1-.17-.14-.38-.13-.68-.22-.56-.35-1.14-.48-1.7-.13-.56-.25-1.08-.45-1.59-.04-.11-.11-.29-.09-.49.04-.45.48-.67.64-.76.12-.06.27-.13.46-.13.02,0,.04,0,.06,0,.46.04.71.49.72.89,0,.13-.01.25-.03.36-.01.11-.03.21-.02.29.04.36.24.72.45,1.1.2.36.4.72.5,1.14.05.19.06.32.06.43.02.01.09.08.09.08.12.09.27.22.41.36.11.02.22.07.34.13.18.1.57.39.7.68.11,0,.24.03.37.08.03,0,.05-.02.08-.03-.03-.09-.06-.2-.1-.34-.01-.04-.02-.09-.03-.13-.09-.09-.15-.22-.15-.44,0-.01,0-.02,0-.03-.15-.49.03-.73.16-.84,0-.5.14-.94.4-1.22.23-.25.53-.38.89-.38.13,0,.28.02.42.06.13.03.26.09.39.16-.03-.15-.03-.32-.02-.52-.2-.55-.37-1.16-.51-1.87-.04-.21-.09-.42-.13-.63-.1-.46-.2-.93-.26-1.42-.02-.13-.04-.3-.03-.48,0-.11,0-.22.03-.33-.02-.23.03-.48.15-.73.04-.22.14-.45.31-.67.07-.09.22-.23.52-.23.25,0,.53.11.7.2.51.27.5.64.46.79,0,.02-.01.05-.02.07.04.11.04.22.02.33,0,.04-.02.08-.03.11.02.09.02.19,0,.28-.02.08-.05.15-.08.22.01.08.01.15,0,.23-.03.15-.1.27-.2.37.19.37.38.76.56,1.15.04.08.08.17.13.26.19.37.42.83.43,1.25.06.3.07.47.06.59.04.04.12.1.17.15.19.16.38.33.55.51.14.02.28.08.44.18.31.19.78.62.87.95h0c.16,0,.36.04.55.12.06-.02.13-.05.2-.07.01-.04.02-.07.03-.11-.04-.15-.09-.33-.15-.53-.02-.07-.03-.15-.05-.22-.1-.09-.18-.25-.18-.52,0-.03,0-.07,0-.08-.17-.57,0-.87.18-1.01.01-.01.03-.02.04-.03-.02-.52.06-.93.23-1.26,0-.02-.02-.04-.02-.07-.03-.13.01-.28.11-.37.01-.01.03-.03.05-.04,0-.17.12-.31.28-.36.17-.05.34-.08.51-.08.29,0,.54.07.74.15.04-.01.08-.02.11-.02h.04c.21,0,.39.09.53.2h.01c.07,0,.14.02.21.06.57.37.62,1.23.58,1.83.12.16.16.39.16.74,0,.48-.15.74-.32.87-.02.06-.03.12-.05.17-.04.15-.1.34-.1.43h0c0,.11.01.23.01.34.1-.03.21-.05.32-.05.06,0,.13,0,.19.02.1-.09.22-.18.35-.24.11-.14.32-.33.65-.43h.03s.07-.03.11-.03h0c.17-.15.36-.26.61-.41.06-.03.12-.07.18-.11.11-.64.37-1.28.6-1.85.06-.15.12-.3.18-.45.15-.39.31-.79.47-1.18.03-.09.07-.32.1-.53.03-.23.07-.48.13-.71l-.09-.2s-.02-.04-.02-.06c-.16-.66.06-1.44.72-1.62.08-.02.16-.03.25-.03.08,0,.16,0,.22.02.08,0,.16.03.26.05.04.01.08.03.12.06.46.32.55.57.56.91,0,.05,0,.09.01.13.14.57-.02,1.09-.16,1.55-.08.25-.18.66-.28,1.07.16-.17.35-.3.52-.36.2-.1.46-.17.54-.19.19-.05.38-.07.55-.07.45,0,.84.17,1.12.48.35.39.54.99.52,1.67.02.01.03.02.05.04.19.14.37.44.18,1.04h0s0,.03,0,.05c.01.28-.08.44-.19.53-.01.08-.03.15-.05.22-.06.21-.11.38-.15.53.01.03.02.07.03.1.09.02.17.05.25.08.21-.09.43-.12.61-.12h0c.1-.34.6-.77.93-.96.17-.09.32-.15.47-.17.04-.05.09-.09.15-.14-.06-.17-.1-.35-.13-.55-.59-.46-1.27-1.12-1.56-1.59-.16-.06-.34-.17-.5-.43-.17-.28-.25-.64-.25-1.17-.24-.53-.48-1.17-.69-1.85-.1.13-.21.23-.3.31,0,0-.08.07-.26.36-.07.12-.2.19-.34.19-.02,0-.03,0-.05,0-.15-.02-.28-.13-.32-.28-.06-.23-.17-.46-.28-.71-.06-.13-.14-.27-.22-.42-.25-.45-.53-.95-.49-1.48-.05-.1-.05-.22,0-.32v-.03s.05-.08.07-.12c.11-.24.56-1.01,1.15-1.82-.07-.54-.03-.75.05-.9.06-.1.13-.19.22-.27.01-.03.03-.07.05-.1.09-.16.22-.29.38-.39.15-.21.38-.37.66-.46.24-.19.54-.26.76-.29.03,0,.05,0,.08,0,.12,0,.24.04.35.11,1.19-.29,5.53-.32,7.39-.32,1.63,0,3.13.02,3.74.06.1,0,.22,0,.35,0,.4,0,.9-.03,1.48-.06h.03c.72-.04,1.54-.09,2.34-.09.37,0,.7.01,1.01.03.08-.12.19-.22.3-.29.12-.07.26-.11.39-.11s.25.03.35.1c.02,0,.03-.01.05-.02.1-.04.2-.05.3-.05.21,0,.41.09.55.25.21.01.4.11.53.28.01.02.03.04.04.06.15.04.28.12.38.25.08.11.22.33.26.62.67.52.75.92.78,1.36,0,.1.01.16.03.22.03.11.2.39.3.55.09.14.07.32-.03.45-.12.15-.26.29-.39.43-.17.18-.33.35-.46.54-.14.19-.24.39-.34.66-.09.27-.2.51-.32.75-.06.12-.18.2-.31.21-.01,0-.03,0-.04,0-.12,0-.23-.05-.3-.14-.05-.06-.09-.11-.12-.16-.1-.13-.15-.29-.2-.44-.02.28-.04.54-.07.75-.09.91-.48,2.31-.7,3.06-.02.08-.05.15-.09.22.04-.04.09-.07.15-.09.17-.05.34-.08.51-.08.29,0,.54.07.75.15.04-.01.07-.02.11-.02h.04c.21,0,.39.09.53.2h.01c.07,0,.14.02.21.06.19.12.34.32.44.57h0c.07.16.1.32.11.43h0c.04.31.04.62.02.83.12.16.16.39.16.74,0,.48-.15.74-.32.87-.02.06-.03.12-.05.17-.04.15-.1.34-.1.43h0c0,.11.01.23.01.34.1-.03.21-.05.31-.05.06,0,.13,0,.19.02.1-.09.22-.18.35-.24.11-.14.32-.33.65-.43h.03s.07-.02.11-.02h0c.17-.15.36-.26.61-.41.06-.03.12-.07.18-.11.11-.64.37-1.28.6-1.85.06-.15.12-.3.18-.45.15-.39.31-.79.47-1.18.03-.09.07-.32.1-.53.03-.22.07-.46.12-.69-.18-.37-.2-.91-.04-1.3.13-.31.36-.52.66-.6.08-.02.16-.03.26-.03.08,0,.16,0,.22.02.2.03.49.09.71.29.21.19.32.46.33.78,0,.05,0,.1,0,.15-.02.4-.19.76-.45,1-.02.11-.04.22-.06.33-.07.41-.12.75-.13,1.09,0,.28-.05.55-.1.81-.04.26-.09.52-.09.75,0,.02,0,.04,0,.05,0,.05-.02.11-.03.17.19-.33.4-.65.63-.98,0-.09.02-.17.06-.26.09-.21.17-.39.25-.54,0-.12.01-.3.08-.51-.02-.36.1-.7.34-.91.36-.84.68-.92.78-.94.05-.01.1-.02.14-.02.05,0,.13,0,.21.04.02,0,.05,0,.08,0,.11,0,.21.03.3.1.22.16.29.44.27.69.08.14.18.41.08.82l.02.02c.07-.16.2-.3.38-.37.05-.02.11-.03.17-.03.08-.09.16-.14.23-.17.07-.03.14-.04.21-.04.04,0,.09,0,.14.02.07-.03.15-.05.23-.05.09,0,.23.02.37.12.01,0,.02,0,.04,0,.23,0,.53.13.63.74.08.51.09,1.05.08,1.26h0c.13.18.15.29.16.37,0,.08,0,.15-.02.23.08.14.15.31.17.49,0,.08,0,.17-.03.26.17.39.32.75.45,1.07.08-.4.23-.71.7-.96.2-.11.41-.18.6-.21.11-.02.23-.03.33-.03.44,0,.8.16,1.06.47.3.36.43.89.37,1.49l.02.02c.13.12.32.4.09.95h0s0,.01,0,.03c-.01.24-.1.38-.2.46-.01.05-.03.11-.05.16-.06.15-.11.29-.16.42,0,.01,0,.02,0,.04.05.02.1.04.15.06.12-.04.26-.05.41-.05.02,0,.05,0,.07,0,.14-.29.58-.6.86-.73.15-.07.28-.1.4-.11.18-.15.37-.28.53-.38.04-.03.1-.07.14-.1,0-.12.03-.27.11-.5.15-.46.43-.87.69-1.26.29-.42.56-.83.64-1.25.02-.1.01-.23,0-.36,0-.12-.01-.26,0-.41.05-.44.36-.91.85-.91.24,0,.43.12.56.19.19.12.64.4.64.89,0,.21-.08.39-.14.52-.29.58-.48,1.18-.68,1.81-.21.64-.42,1.3-.73,1.93-.01.33-.08.57-.2.75-.11.16-.23.25-.34.29-.21.3-.62.66-.94.9-.05.24-.13.44-.26.6-.11.13-.22.25-.34.36-.14.14-.28.28-.4.45.06-.02.12-.03.18-.03.03,0,.06,0,.08,0,.48,0,.92.34,1.05.8.09.35.04.72-.01,1.02h.13c.21,0,.36.06.48.15.03-.23.1-.46.27-.63.11-.12.32-.26.65-.26.05,0,.09,0,.14,0,.3.03.54.15.69.34.25.32.2.74.16,1.08-.01.09-.03.21-.03.3.11-.1.26-.26.3-.35.15-.33.12-.73.09-1.08,0-.08-.02-.17-.03-.25-.05-.37-.09-.75-.05-1.14.02-.13.05-.29.16-.44.12-.15.31-.24.51-.24.27,0,.53.15.67.37.03.04.04.09.05.14.1.26.09.53.07.72l-.14,2.12c-.01.23-.03.5-.14.77-.11.27-.29.48-.46.67-.13.15-.25.28-.31.43,0,.03-.04.23-.07.92-.06,1.42-.24,15.91-.3,20.32,0,.17-.11.3-.26.36l-.13-.36-.31-.88s-.01-.03-.02-.05c-.43-1.04-.92-2.07-1.44-3.05-.79-1.47-1.71-2.9-2.72-4.24-1.04-1.37-2.18-2.68-3.41-3.88-1.22-1.19-2.53-2.29-3.91-3.28-1.42-1.02-2.93-1.94-4.5-2.74-1.56-.79-3.2-1.47-4.87-2.01-1.68-.54-3.41-.96-5.15-1.24-1.75-.28-3.54-.43-5.32-.44h-.2c-1.66,0-3.34.12-4.99.35-1.73.25-3.45.62-5.1,1.12-1.6.48-3.17,1.08-4.68,1.78-1.5.7-2.97,1.52-4.36,2.44-1.37.91-2.7,1.93-3.93,3.04-1.26,1.13-2.45,2.36-3.52,3.65-1.11,1.33-2.11,2.75-2.99,4.21-.47.79-.91,1.6-1.32,2.43-.06.12-.11.23-.16.35-.13-.06-.23-.19-.23-.34-.14-14.33-.2-17.02-.22-17.3-.24-.99-.58-1.76-1.07-2.41M16.86,57.14c0-.14,0-.27,0-.41,0-.3.02-.6.04-.91.03-.43.06-.87.1-1.3.03-.32.07-.65.11-.97.13-.97.29-1.93.51-2.88.09-.42.2-.84.31-1.25.11-.42.23-.83.36-1.24.06-.21.13-.41.2-.61.14-.41.28-.81.43-1.22.08-.2.15-.4.23-.6.03-.09.07-.17.11-.26.12-.3.25-.6.39-.9.02-.05.05-.1.07-.15.24-.52.49-1.04.76-1.55.29-.56.6-1.11.92-1.65.21-.36.44-.71.67-1.06.69-1.05,1.43-2.06,2.24-3.03,1.05-1.26,2.2-2.45,3.42-3.55.23-.2.45-.4.68-.59.69-.59,1.41-1.14,2.14-1.67.33-.23.66-.46,1-.68.34-.22.68-.44,1.02-.65.35-.21.69-.42,1.05-.61.71-.4,1.43-.77,2.16-1.11.37-.17.74-.34,1.11-.49.37-.16.75-.31,1.13-.45.76-.29,1.53-.55,2.3-.78,1.62-.49,3.28-.85,4.96-1.09.42-.06.84-.11,1.26-.15,1.26-.13,2.52-.2,3.79-.19.43,0,.87.01,1.3.03.65.03,1.3.08,1.94.14.32.03.65.07.97.11.32.04.64.09.96.14.32.05.64.11.95.17.32.06.63.12.95.19.42.09.84.19,1.25.3.62.16,1.24.34,1.85.54.51.16,1.01.34,1.51.53.5.19.99.39,1.48.6.39.17.78.35,1.16.53.19.09.38.19.57.28,1.52.77,2.99,1.66,4.37,2.66.34.24.67.49.99.74.65.51,1.29,1.04,1.9,1.6.31.28.61.56.9.85.3.29.59.59.88.89s.57.61.85.93.55.63.81.96c.26.32.52.65.78.99.25.33.48.66.72.99.18.25.35.5.51.76.25.38.49.77.73,1.17.23.39.46.79.68,1.2.52.96.98,1.95,1.4,2.96-.16-.08-.32-.14-.49-.16h0c-.16-.03-.33-.03-.49,0-.11.02-.22.05-.32.09-.15.06-.28.14-.41.24-.12.1-.24.22-.34.35-.11.13-.21.28-.3.44-.16.26-.31.56-.47.86-.06.12-.12.24-.19.36-.03-.02-.1-.06-.2-.11-.03-.02-.07-.04-.11-.06-.09-.05-.21-.12-.34-.19-.22-.12-.48-.27-.78-.44-.36-.2-.77-.43-1.22-.68-.22-.12-.46-.25-.7-.39-.4-.22-.82-.45-1.24-.69-.26-.14-.52-.29-.77-.43-.26-.14-.52-.29-.78-.43-.26-.14-.52-.29-.77-.43-.17-.09-.34-.19-.51-.28-.25-.14-.49-.27-.73-.41-.16-.09-.31-.17-.47-.26s-.3-.17-.44-.25c-.22-.12-.42-.23-.62-.34-.19-.11-.38-.21-.54-.3-.22-.12-.42-.23-.59-.32-.38-.21-.61-.33-.63-.33,0,0-.1.07-.28.2-.09.06-.19.14-.32.23s-.26.2-.42.31c-.23.17-.5.37-.79.59-.24.18-.51.38-.78.59-.14.1-.28.21-.43.32s-.29.22-.44.33c-.27-.38-.57-.71-.89-.97.7-.52,1.34-1,1.87-1.4.26-.2.5-.38.7-.53.13-.1.25-.19.35-.27.1-.08.18-.14.25-.19.09-.07.14-.11.14-.12-.02-.07-.15-.42-.35-.96-.07-.2-.15-.42-.24-.66-.02-.06-.04-.12-.07-.19-.05-.13-.09-.26-.14-.39-.12-.34-.25-.7-.39-1.08-.08-.23-.17-.46-.25-.7-.12-.32-.23-.64-.35-.96-.15-.41-.3-.81-.44-1.21-.03-.08-.06-.16-.09-.24-.09-.24-.17-.47-.26-.7-.14-.38-.28-.75-.4-1.1-.05-.14-.1-.27-.15-.4-.1-.26-.19-.5-.27-.72-.04-.11-.08-.21-.12-.31-.05-.15-.1-.28-.15-.4-.01-.04-.03-.08-.04-.11-.03-.07-.05-.13-.07-.19-.06-.16-.1-.26-.1-.26-.02-.02-15.61-.71-15.82-.72-.19.16-.37.31-.55.47h0s-.05.04-.08.07c-.04.03-.09.08-.16.13-.07.06-.15.12-.24.2-.04.03-.07.06-.11.09-.06.05-.13.11-.2.17-.08.07-.17.14-.26.22-.08.07-.16.13-.24.21-.24.2-.49.41-.77.64-.11.09-.22.18-.33.28-.29.24-.59.49-.89.75-.18.15-.35.3-.53.45-.24.21-.49.41-.73.62-1.83,1.54-3.54,2.98-3.69,3.11l-.03.02s-.03.02-.04.03c-.01.01-.02.02-.02.04,0,.02.02.06.03.09v.03c.04.07.06.15.09.22.01.04.04.12.08.24.01.04.03.08.04.13.04.11.09.24.14.4.03.1.07.21.11.32.12.35.26.76.42,1.2.06.16.12.33.18.51.18.52.37,1.07.57,1.63.13.37.26.74.38,1.1.12.36.25.71.36,1.04.06.16.11.33.17.48.02.07.05.13.07.2.04.13.09.25.13.37.07.19.13.37.18.53s.1.3.14.41c.08.23.13.37.13.39,0,.01,0,.03.01.03,0,.02.01.03.05.04.01,0,.33.08.86.2.27.06.59.13.95.21.21.05.44.1.67.15.71.15,1.53.33,2.4.52-.09.04-.17.08-.24.12-.12.06-.23.12-.32.18-.04.02-.08.05-.11.07s-.07.05-.09.07c-.11.09-.2.18-.29.27-.09.09-.16.18-.22.26-.04.06-.08.12-.12.17-.07.11-.12.23-.16.34-.04.11-.07.21-.09.32-.02.13-.03.26-.03.37h-.03c-.88-.21-1.76-.41-2.64-.62-.36-.08-.73-.17-1.09-.25.01,0,.02,0,.03.01.25.11.51.2.76.31.52.22,1.04.46,1.55.7.39.19.78.39,1.17.59-.59.35-1.2.71-1.82,1.07-.04.03-.09.05-.13.09-.04.03-.08.07-.11.1-.07.07-.13.16-.17.25-.01.03-.03.06-.04.09-.04.1-.09.2-.13.31-.04.11-.08.23-.12.36-.03-.02-.05-.05-.08-.07-.04-.03-.08-.06-.13-.08-.09-.05-.18-.08-.27-.1-.06-.01-.12-.02-.18-.02-.09,0-.18,0-.27.03-.04.01-.09.02-.13.04s-.09.04-.13.06c-.7.38-1.39.76-2.06,1.11-.05.03-.11.06-.16.1-.1.08-.18.17-.24.27-.03.05-.06.11-.08.17-.06.15-.12.33-.17.52-.02-.02-.04-.04-.07-.05-.1-.07-.2-.13-.32-.16-.11-.03-.23-.05-.35-.04-.09,0-.19.02-.28.05-.05.01-.09.03-.13.05-.3.15-.59.29-.88.42-.29.14-.57.27-.85.4.21-.35.43-.72.65-1.1.15-.25.3-.51.46-.77.39-.65.79-1.33,1.19-1.98.05-.09.11-.18.16-.27.15-.25.29-.49.43-.72.12-.19.23-.38.34-.57.28-.47.55-.91.78-1.3.13-.22.25-.42.36-.61.03-.05.06-.1.09-.15.1-.17.19-.32.27-.45.06-.1.11-.18.14-.24.04-.06.07-.11.09-.14,0-.02.02-.03.02-.03.03-.06.06-.09.07-.12.01-.03,0-.07-.01-.13-.04-.12-.12-.34-.22-.64-.05-.15-.11-.32-.18-.51-.13-.38-.28-.82-.45-1.3-.08-.24-.17-.49-.26-.74s-.18-.51-.27-.78c-.14-.39-.27-.79-.41-1.18-.09-.26-.18-.52-.27-.77-.09-.25-.17-.49-.25-.72-.08-.23-.16-.45-.23-.66-.32-.94-.55-1.59-.57-1.63-.01-.04-.04-.19-.07-.21-.02-.01-.07,0-.1,0-.01,0-.02,0-.03,0-.13.02-5.98.8-7.9,1.05-.21.03-.38.05-.48.06-.07,0-.11.01-.12.02s-.02,0-.03,0c-.03,0-.06,0-.08,0-.01,0-.02,0-.03.01-.02.01-.03.04-.04.07,0,.01-.01.03-.02.04,0,.01-.01.02-.02.03-.07.12-.13.24-.2.36-.23.41-5.36,9.56-5.67,10.1.05.17,2.12,6.79,2.68,8.6-.18,0-.36.02-.55.03-.36.03-.72.08-1.07.14-.18.03-.35.07-.52.11-.34.08-.68.19-1.01.3-.33.12-.65.25-.96.41-.67.33-1.3.73-1.87,1.2-.19.16-.38.32-.56.5-.04-.5-.06-1-.08-1.5-.01-.39-.02-.78-.01-1.17,0-.13,0-.26,0-.38"></path><path class="cls-3" d="M35.08,30.63s.06-.03.09-.05c.04-.02.09-.04.12-.06.03-.02.05-.03.06-.03.16-.07.31-.14.47-.2.16-.06.32-.12.48-.18.73-.27,1.47-.5,2.22-.7.75-.2,1.51-.38,2.27-.52.7-.13,1.4-.24,2.11-.28.12,0,.24-.01.37-.01.06,0,.13,0,.19,0,.13,0,.25,0,.38.02s.25.04.37.07c.06.02.12.04.18.06-.43-.41-.87-.82-1.3-1.23-.48.11-.97.24-1.44.38-.24.07-.48.14-.71.22-.24.08-.47.15-.71.23-1.32.45-2.61.99-3.87,1.61-.37.19-.75.38-1.11.58,0,0-.01,0-.02.01-.01,0-.03.02-.05.03s-.04.02-.06.04c-.04.03-.09.06-.14.08-.07.04-.12.07-.12.06,0,0,.04,0,.08-.03.04-.02.1-.05.17-.08"></path><path class="cls-3" d="M19.89,48.15c.23-.42.47-.83.7-1.25.48-.85.95-1.71,1.43-2.56.55-.99,1.11-1.98,1.66-2.97.45-.81.9-1.62,1.36-2.43.14-.24.27-.49.41-.73,0-.01.02-.03.04-.06.02-.02.04-.05.05-.08.03-.04.05-.09.04-.12,0-.01,0-.02-.01-.03-.56.66-1.1,1.34-1.6,2.03-.46.64-.89,1.29-1.31,1.96-.41.67-.79,1.35-1.15,2.05-.18.35-.35.7-.52,1.05-.12.27-.24.53-.36.8-.23.54-.45,1.09-.65,1.64-.1.28-.2.55-.29.83.07-.04.13-.08.2-.12v-.02Z"></path><path class="cls-3" d="M63.56,32.41c.11.33.22.66.32.98.07.22.14.43.21.63s.13.4.19.59c.03.09.06.19.09.27.04.13.09.26.13.38.04.12.08.23.11.33.05.14.09.26.12.36.01.04.02.07.04.11.03.1.06.17.07.21,0-.11.29-1.99.31-2.1.02-.13.04-.27.09-.4s.11-.25.2-.35c.03-.03.05-.06.08-.08.22-.19.52-.23.8-.22.08,0,.16.01.24.02.24.03.47.09.7.17.31.11.61.25.9.4.1.05.19.1.29.15.09.05.19.1.28.15.98.55,1.9,1.2,2.8,1.87.78.59,1.55,1.2,2.3,1.83.24.2.47.4.71.6h.02s.02.03.03.04c.03.02.06.04.09.07.06.05.12.1.12.11v-.02s-.05-.06-.06-.08c-.04-.06-.07-.12-.11-.18-.08-.12-.16-.24-.24-.35-.17-.24-.35-.48-.54-.71-.39-.47-.82-.92-1.26-1.35-.58-.57-1.19-1.11-1.82-1.62-.63-.52-1.28-1.01-1.95-1.48-.44-.31-.89-.62-1.34-.92-.22-.14-.46-.3-.72-.46s-.53-.33-.81-.5c-.19-.11-.38-.23-.58-.34-.22-.13-.45-.26-.67-.39-.22-.13-.45-.25-.67-.37-.11-.06-.22-.12-.33-.17-.22-.11-.43-.22-.63-.32-.2-.1-.4-.19-.58-.27,0,0,.41,1.28.89,2.78.07.21.14.43.21.65"></path><path class="cls-3" d="M45.89,27.56s.04.12.07.14c.02.01,0,0,.03.01,0,0,.03,0,.08,0,.03,0,.07,0,.12,0,.08,0,.17.01.29.02.13,0,.29.02.46.02.06,0,.12,0,.18.01.13,0,.26.01.41.02.22.01.45.02.7.04.33.02.69.04,1.08.05.48.02.99.05,1.51.08.95.05,1.96.1,2.96.15.55.03,1.1.05,1.63.08.32.02.63.03.93.05.2.01.4.02.59.03.19,0,.38.02.56.03.18,0,.35.02.52.03.17,0,.33.02.48.02.15,0,.3.01.43.02.34.02.63.03.85.04.09,0,.17,0,.23.01.07,0,.12,0,.16,0,.06,0,.1,0,.1,0,.05,0,.08,0,.1-.03.01,0,.03-.02.04-.03.01-.01.03-.03.05-.05-.24-.08-.48-.16-.73-.23-.73-.22-1.47-.42-2.21-.59-.75-.17-1.5-.32-2.26-.43-.25-.04-.51-.08-.76-.11-.34-.04-.68-.08-1.02-.12-.45-.05-.91-.08-1.36-.11-1.37-.08-2.74-.08-4.11.01-.46.03-.91.07-1.36.12-.35.04-.69.08-1.04.13.05.1.11.21.16.31.04.08.09.16.13.25"></path><path class="cls-3" d="M37.41,15.97c.2-.04.39-.07.56-.13.07-.02.09-.03.09-.39,0-.07,0-.13,0-.2-.01-.11-.08-.33-.11-.43-.02-.06-.03-.12-.05-.18-.16-.12-.3-.34-.34-.76-.12.46-.26.91-.36,1.22-.06.19-.19.35-.35.46-.04.03-.07.05-.1.07-.09.14-.26.38-.47.66.16-.07.32-.12.48-.17.22-.07.43-.11.64-.15"></path><path class="cls-3" d="M56.83,14.43c.13.03.26.08.4.17.31.19.78.62.87.95h0c.16,0,.36.04.55.12.06-.02.13-.05.2-.07.01-.04.02-.07.03-.11-.04-.15-.09-.33-.15-.53-.02-.08-.03-.15-.05-.22-.1-.09-.18-.25-.18-.52,0-.03,0-.07,0-.08-.17-.58,0-.87.18-1.01.01-.01.02-.02.04-.03-.02-.52.06-.94.23-1.26,0-.02-.02-.05-.02-.07-.03-.13.01-.28.11-.37.01-.01.03-.03.05-.04,0-.04,0-.08.02-.12-.06.08-.14.15-.22.21-.07.05-.13.09-.17.12-.25.42-1.03,1.52-1.82,2.38-.02.16-.04.32-.08.48"></path><path class="cls-3" d="M73.46,17.58s.03-.17.03-.26c0-.03,0-.07,0-.1-.04.13-.07.26-.12.38.02,0,.03,0,.05-.01.02,0,.02,0,.02,0"></path><path class="cls-3" d="M63.82,20.29h0c-.02-.06-.04-.1-.05-.15-.1-.29-.07-.61.08-.9.15-.28.4-.49.69-.57.09-.02.17-.03.26-.03.29,0,.56.11.76.3,0-.17,0-.33,0-.47.02-.36.28-1.26.29-1.3.04-.15.06-.32.06-.51,0-.34.05-.63.16-.85-.01,0-.03.02-.04.03-.2.31-.74,1.04-1.29,1.62-.06.35-.16.61-.16.62v.02c-.03.07-.08.13-.14.17h-.02c-.22.18-.84.76-.81,1.27.01.25,0,.52,0,.77.08-.02.16-.02.23-.03"></path><path class="cls-3" d="M69.32,14.39h.03s.08,0,.12,0c.07-.04.14-.07.22-.07.03,0,.06,0,.09.01.03,0,.19.05.37.16h.03c.11,0,.22.05.3.13.01.01.04.05.09.1.1.03.18.1.23.19.14.27.15.64.08.91.05.21.06.42.02.61.06.26.06.5-.01.73.12-.19.26-.29.39-.34l.28-.59c-.2-.42-.23-.89-.24-1.35v-.03c.02-.28.02-.55,0-.79-.05-.06-.09-.12-.13-.19-.09-.18-.13-.39-.15-.55-.11-.11-.2-.25-.26-.37-.2-.13-.36-.33-.43-.43l-.03-.05c-.07-.11-.14-.22-.18-.31-.02-.05-.04-.09-.05-.13h0c-.07.03-.14.07-.22.09-.06.14-.16.29-.31.42,0,.01,0,.02,0,.03,0,.21-.02.56-.32.74-.09.33-.19.65-.29.95.03,0,.06,0,.08,0,.1,0,.2.04.28.12"></path><path class="cls-3" d="M48.19,10.63c-.15-.09-.28-.28-.28-.63,0-.06,0-.11-.01-.13-.04-.12-.08-.23-.1-.33h0c-.29.74-.47,1.52-.64,2.27l-.05.21h.02s.09.01.14.01c.21,0,.49.03.76.13.13-.06.28-.12.45-.16.03-.09.05-.19.08-.27-.08-.22-.17-.46-.26-.75-.03-.11-.07-.22-.09-.34"></path><path class="cls-3" d="M43.81,19.9c.12-.1.28-.24.27-.31,0-.04-.06-.12-.11-.18-.06-.09-.13-.19-.18-.31-.06-.14-.08-.3-.07-.45-.07.16-.12.34-.15.55,0,.04-.01.09-.02.14-.03.3-.06.61-.1.93.11-.15.24-.26.36-.37"></path><path class="cls-3" d="M43.27,22.32c.03.13.06.33.1.56.09-.13.15-.3.16-.45.02-.3-.06-.61-.15-.94-.02-.06-.03-.12-.05-.18-.04.34-.07.65-.07.84,0,.04,0,.07,0,.09,0,.03,0,.06.01.08"></path><path class="cls-3" d="M41.36,60.12c-.06.02-.1.04-.1.04.03-.01.06-.02.1-.04"></path><path class="cls-3" d="M37.62,82.82c-.04-.68-.42-1-1.12-.95-.55.04-.82.06-1.36.1.09,1.17.16,2.03.23,2.91.02.21.03.41.05.63,0,.05,0,.09.01.14,0,.06,0,.12.01.18,0,.03,0,.06,0,.09.04.47.08.97.12,1.56.34-.03.51-.04.84-.06-.05-.62-.07-1.01-.11-1.52,0-.03,0-.06,0-.09,0-.06,0-.13-.01-.19,0-.05,0-.1-.01-.15,0-.01,0-.02,0-.04.19-.01.29-.02.49-.04.55-.04.86-.28.95-.72.02-.11.03-.23.02-.37-.04-.58-.06-.88-.1-1.46M36.56,84.64c-.14.01-.21.02-.35.03-.06-.81-.09-1.22-.15-2.03.14-.01.21-.02.36-.03.22-.02.33.08.35.3.04.55.06.83.1,1.38.02.22-.08.33-.3.34"></path><path class="cls-3" d="M42.33,85.72s0-.08,0-.12c0-.1,0-.2-.01-.3,0-.07,0-.14,0-.2-.01-.32-.02-.61-.04-.9-.02-.5-.04-1.01-.07-1.67-.03-.68-.39-1.01-1.1-.98-.19,0-.28.01-.46.02-.71.03-1.04.39-1,1.08.04.72.07,1.26.1,1.8.01.25.03.5.04.77,0,.06,0,.12.01.18,0,.08,0,.17.01.25,0,.04,0,.08,0,.11,0,.14.02.28.02.43.04.68.4,1,1.08.97.18,0,.27-.01.45-.02.69-.03,1.01-.38.98-1.07,0-.12-.01-.24-.01-.36M41.2,86.41c-.07,0-.1,0-.17,0-.22.01-.33-.09-.34-.31,0-.13-.01-.25-.02-.36,0-.04,0-.08,0-.12,0-.09,0-.18-.01-.27,0-.06,0-.13,0-.19-.01-.29-.03-.55-.04-.81-.03-.52-.05-1.03-.09-1.72-.01-.22.09-.33.32-.34.07,0,.11,0,.18,0,.22-.01.33.09.34.31.03.67.05,1.18.08,1.68.01.28.03.55.04.86,0,.06,0,.13,0,.2,0,.09,0,.19.01.28,0,.04,0,.08,0,.12,0,.11.01.22.02.34.01.22-.09.33-.3.34"></path><path class="cls-3" d="M46.91,85.54c0-.12,0-.24,0-.35,0-.08,0-.15,0-.22,0-.36-.01-.67-.02-1,0-.4-.01-.82-.02-1.35-.01-.81-.42-1.2-1.26-1.18-.52.01-.78.02-1.31.03.03,1,.05,1.77.08,2.52.01.34.02.68.03,1.03,0,.07,0,.14,0,.21,0,.11,0,.21.01.33,0,.04,0,.09,0,.13.01.39.02.81.04,1.29.51-.02.76-.02,1.27-.03.82-.02,1.2-.42,1.19-1.23,0-.01,0-.03,0-.04,0-.05,0-.09,0-.13M45.59,86.21c-.12,0-.19,0-.31,0,0-.19,0-.36-.01-.53,0-.04,0-.09,0-.13,0-.12,0-.23,0-.34,0-.07,0-.15,0-.22-.01-.38-.02-.73-.03-1.1-.01-.51-.03-1.04-.04-1.72.13,0,.19,0,.32,0,.34,0,.5.15.5.48.01.5.02.89.03,1.27,0,.35.01.68.02,1.06,0,.07,0,.15,0,.22,0,.11,0,.22,0,.35,0,.04,0,.09,0,.13,0,.01,0,.02,0,.03,0,.33-.14.49-.47.5"></path><path class="cls-3" d="M51.46,83.48c0-.45,0-.68,0-1.13,0-.68-.33-1.02-1.04-1.02-.17,0-.25,0-.42,0-.71,0-1.05.34-1.05,1.03,0,.68,0,1.2,0,1.71,0,.28,0,.56,0,.87,0,.07,0,.15,0,.23,0,.12,0,.24,0,.37,0,.04,0,.09,0,.13,0,.08,0,.16,0,.25,0,.68.34,1.02,1.03,1.02.17,0,.25,0,.42,0,.69,0,1.03-.33,1.03-1.02,0-.09,0-.16,0-.24,0-.04,0-.09,0-.13,0-.14,0-.26,0-.39,0-.07,0-.15,0-.23,0-.09,0-.19,0-.3-.34,0-.5,0-.84,0,0,.11,0,.21,0,.3,0,.08,0,.15,0,.23,0,.13,0,.25,0,.38,0,.04,0,.09,0,.13,0,.06,0,.13,0,.2,0,.22-.1.32-.32.32h-.16c-.22,0-.33-.1-.33-.32v-.94c0-.29,0-.56,0-.82,0-.51,0-1.03,0-1.71,0-.22.1-.32.33-.32h.15c.22,0,.32.1.32.32,0,.43,0,.65,0,1.08.34,0,.51,0,.85,0"></path><path class="cls-3" d="M55.86,85.64c-.01-.13-.03-.26-.04-.39,0-.07-.02-.14-.02-.21-.02-.21-.05-.42-.07-.63-.1-.89-.21-1.76-.35-2.95-.46-.01-.69-.02-1.15-.03-.2,1.16-.34,2.01-.48,2.88-.04.22-.07.44-.11.67-.01.07-.02.15-.04.22-.02.13-.04.26-.06.39,0,.04-.01.08-.02.12-.06.37-.12.77-.2,1.21.31,0,.47,0,.78.02.05-.35.07-.52.12-.86.35,0,.53.01.88.02.03.35.05.52.09.87.33,0,.5.01.84.03-.05-.45-.1-.86-.14-1.24,0-.04,0-.08-.01-.12M54.32,85.33s.01-.08.02-.12c.01-.07.02-.15.03-.22.03-.24.07-.45.1-.65.08-.57.16-1.06.27-1.79.08.74.13,1.24.18,1.81.02.2.04.41.06.64,0,.07.01.14.02.22,0,.04,0,.08.01.12-.27,0-.41-.01-.69-.02"></path><path class="cls-3" d="M59.53,81.58c-.15,0-.22-.01-.37-.02-.71-.03-1.07.29-1.1.97-.01.3-.02.45-.03.76-.02.42.08.69.46.97.15.12.26.21.37.3.14.11.27.22.46.37.1.09.17.16.2.28.01.05.02.11.02.18h0c0,.14-.01.25-.02.36,0,.03,0,.07,0,.1,0,.09,0,.18-.02.3-.01.21-.12.31-.34.3-.04,0-.07,0-.11,0-.22-.01-.32-.12-.31-.33,0-.1,0-.2.01-.28,0-.04,0-.07,0-.1,0-.12.01-.24.02-.36,0-.06,0-.12,0-.19,0-.06,0-.12,0-.19-.33-.02-.5-.02-.83-.04,0,.07,0,.13,0,.19,0,.07,0,.14,0,.2,0,.13-.01.25-.02.37,0,.03,0,.07,0,.11,0,.09,0,.19-.01.3-.03.68.29,1.03.97,1.06.15,0,.22.01.37.02.69.03,1.04-.28,1.08-.97,0-.13.01-.24.02-.34,0-.03,0-.06,0-.09,0-.11.01-.21.02-.34,0-.04,0-.08,0-.12,0-.02,0-.04,0-.06,0-.26-.04-.45-.16-.63-.07-.1-.16-.19-.29-.29-.33-.27-.5-.4-.83-.67-.15-.12-.23-.23-.22-.46.01-.25.02-.37.03-.61.01-.21.12-.31.34-.3.04,0,.06,0,.11,0,.22.01.32.12.31.33-.02.39-.03.58-.05.97.34.02.51.03.84.04.02-.4.03-.6.06-1,.04-.68-.29-1.03-.99-1.07"></path><path class="cls-3" d="M62.39,82.56c.31.02.47.03.78.05-.06.85-.11,1.51-.15,2.15-.02.22-.03.45-.05.68,0,.05,0,.1-.01.15,0,.1-.01.19-.02.29,0,.03,0,.05,0,.08-.03.42-.06.87-.1,1.39.31.02.48.03.77.06.02,0,.04,0,.07,0h0c.04-.53.07-.99.11-1.41,0-.02,0-.05,0-.07,0-.09.01-.18.02-.27,0-.05,0-.09.01-.14.02-.24.03-.47.05-.71.05-.64.1-1.29.16-2.13.31.02.47.03.78.06.02-.3.04-.46.06-.76-.97-.08-1.45-.11-2.43-.18-.02.31-.03.46-.05.76"></path><polygon class="cls-1" points="52.55 5.02 52.53 3.74 52.52 3.29 52.95 5.01 53.37 5.01 53.34 2.79 53.34 2.52 53.34 2.44 52.98 2.44 52.99 2.53 53 3.6 53.01 4.03 52.85 3.39 52.71 2.82 52.64 2.54 52.62 2.45 52.16 2.46 52.2 5.03 52.55 5.02"></polygon><path class="cls-1" d="M47.69,4.06c.05.02.12.04.19.03h.01s.09,0,.14-.02c.06-.01.11-.03.16-.06v.59c0,.1-.04.15-.13.15h-.06s-.03,0-.04,0c-.07-.01-.1-.06-.1-.14v-.3s-.16,0-.16,0h-.23s0,.33,0,.33c0,.32.16.47.48.46h.17c.32,0,.48-.17.47-.49v-.06s-.01-.7-.01-.7v-.81s-.01-.09-.01-.09c0-.13-.03-.23-.09-.31-.08-.11-.21-.16-.4-.16h-.17c-.32,0-.48.17-.47.49v.7c.01.19.1.32.24.39M48.03,2.84c.1,0,.14.05.15.15v.08s.01.64.01.64c-.01,0-.03.01-.05.02-.03.01-.07.02-.11.02-.01,0-.02,0-.03,0-.1,0-.15-.05-.15-.15v-.61c-.01-.1.04-.15.13-.15h.05s0,0,0,0Z"></path><path class="cls-1" d="M44.57,4.75v.39s.6,0,.6,0c.38,0,.56-.19.55-.57v-.06s-.01-.87-.01-.87h0s0-.52,0-.52c0-.13-.03-.24-.08-.33-.09-.15-.25-.23-.5-.23h-.59s0,.42,0,.42l.03,1.77ZM45.08,2.9s.03,0,.05,0c.12.01.17.09.18.22l.02,1.42c0,.13-.04.2-.15.22-.02,0-.05,0-.07,0h-.14s-.03-1.88-.03-1.88h.14Z"></path><path class="cls-1" d="M46.04,4.66c0,.06,0,.1.02.15.05.22.2.32.47.32h.17c.32,0,.48-.17.47-.49h0s-.01-.67-.01-.67c0-.25-.16-.42-.42-.42h-.02c-.07,0-.12.01-.18.03-.04.01-.09.03-.13.05v-.24s0-.38,0-.38c0-.1.05-.15.14-.15h.06c.08,0,.12.03.14.1,0,.01,0,.03,0,.05v.32s0,0,0,0h.38s0-.36,0-.36c0-.03,0-.05,0-.08,0-.08-.03-.14-.06-.2-.07-.13-.21-.19-.41-.19h-.17c-.32,0-.48.17-.47.49l.02,1.3v.36ZM46.62,3.9c.11,0,.15.05.15.15v.51s0,.07,0,.07c0,.1-.05.15-.14.15h-.07c-.1,0-.14-.04-.15-.15v-.08s0-.61,0-.61c.05-.02.13-.04.2-.04"></path><polygon class="cls-1" points="48.91 4.72 48.91 5.07 49.25 5.07 49.22 3.09 49.53 5.06 49.92 5.06 49.98 4.6 50.17 3.14 50.17 3.1 50.17 3.19 50.19 4.68 50.2 5.05 50.58 5.05 50.56 3.61 50.56 3.51 50.55 2.48 49.96 2.49 49.95 2.61 49.86 3.34 49.74 4.36 49.46 2.49 48.88 2.5 48.9 4.47 48.91 4.72"></polygon><polygon class="cls-1" points="51.44 2.72 51.46 4.33 51.47 4.68 51.47 5.04 51.87 5.03 51.86 4.64 51.83 2.66 51.83 2.46 51.44 2.47 51.44 2.54 51.44 2.72"></polygon><path class="cls-1" d="M53.67,2.74l.03,2.27h.59c.38-.01.56-.2.55-.58v-.03s-.01-.87-.01-.87v-.37s0-.17,0-.17c0-.08-.01-.15-.03-.21-.06-.23-.24-.35-.54-.34h-.59s0,.13,0,.13v.18ZM54.23,4.65h-.14s0-.08,0-.08l-.03-1.8h.14s.05,0,.08,0c0,0,0,0,.01,0,0,0,.01,0,.02,0,.08.03.12.1.12.21v.19s0,.41,0,.41v.67s.01.15.01.15c0,.06,0,.1-.03.14-.03.06-.1.09-.19.09"></path><polygon class="cls-1" points="55.44 4.11 55.44 4.53 55.45 4.98 55.84 4.97 55.83 4.09 55.83 4.06 55.88 3.85 56.03 3.23 56.19 2.55 56.23 2.4 55.85 2.4 55.81 2.63 55.63 3.5 55.58 3.28 55.39 2.41 54.99 2.42 55.38 3.9 55.44 4.11"></polygon><path class="cls-3" d="M23.33,75.09c1-.67,1.47-1.69,1.19-3.13-.21-1.07-.31-1.61-.53-2.68-.44-2.28-2.33-2.87-4.89-2.32-1.16.25-1.94.43-2.83.64-.45.11-.94.23-1.52.37,1.31,4.94,2.58,9.88,3.82,14.84.99-.25,1.49-.37,2.49-.59-.03-.15-.07-.3-.1-.44-.48-2.09-.76-3.28-1.28-5.5.24-.05.42-.1.6-.14.21-.05.42-.09.71-.16,1.12,1.83,2.2,3.69,3.25,5.55,1.02-.21,1.54-.31,2.56-.49,0-.01-.01-.02-.02-.03-1.11-1.99-2.26-3.96-3.45-5.92M19.17,74.14c-.44-1.87-.67-2.8-1.11-4.66.49-.11.78-.18,1.21-.27.08-.02.15-.03.24-.05.9-.2,1.59-.02,1.82,1.04.17.78.25,1.17.42,1.95.11.52.04.89-.16,1.15-.21.28-.57.44-1.02.54-.56.12-.84.18-1.4.31"></path><path class="cls-3" d="M33.35,64.97c-.04-.13-.09-.25-.13-.38-1.44.17-2.15.26-3.58.47-.28,5.19-.48,10.39-.6,15.58.04,0,.07-.01.1-.02.91-.15,1.4-.22,2.34-.36.02-1.38.03-2.07.06-3.46,1.15-.16,1.73-.24,2.88-.38.04.13.08.26.11.38.31,1.06.5,1.72.83,2.86,0,.03.02.06.02.09,1.02-.12,1.54-.17,2.55-.27.02,0,.03,0,.05,0-.12-.42-.25-.84-.38-1.26-1.33-4.44-2.75-8.86-4.26-13.25M31.79,67.79c.19.61.39,1.21.58,1.82.5,1.59.99,3.18,1.46,4.78-.75.09-1.19.15-1.84.24-.12.02-.25.03-.4.05.05-2.3.12-4.6.2-6.89"></path><path class="cls-3" d="M48.71,73.35c-.01-.86-.29-1.63-.98-2.06-.26-.16-.59-.28-.98-.33,1.31-.19,1.81-1.35,1.8-2.45-.01-.74-.02-1.12-.03-1.82,0-.03,0-.07,0-.1-.03-1.92-1.59-3.01-4.22-2.9-1.81.08-2.72.13-4.53.27.4,5.09.79,10.18,1.17,15.27.01,0,.03,0,.04,0,1.58-.11,2.38-.16,3.97-.23,2.35-.1,3.84-1.2,3.81-3.13-.01-.9-.02-1.4-.03-2.22,0-.1,0-.19,0-.3M42.75,65.97c.63-.03.95-.05,1.59-.08.81-.03,1.33.32,1.36,1.13,0,0,0,.01,0,.02.03.7.04,1.05.06,1.75.03.81-.46,1.2-1.24,1.23-.55.02-.85.04-1.34.07-.06,0-.13,0-.2.01-.09-1.65-.14-2.48-.24-4.13M43.37,76.89c-.1-1.86-.16-2.79-.26-4.65.64-.03.97-.05,1.61-.08.77-.03,1.27.32,1.3,1.13,0,.07,0,.13,0,.19.03.8.04,1.25.07,2.1.03.81-.43,1.2-1.18,1.23-.6.03-.91.04-1.49.07-.02,0-.04,0-.07,0"></path><path class="cls-3" d="M57.02,63.52c-.08,0-.12,0-.2,0-2.54-.1-4.27.72-4.4,2.89,0,.08,0,.15,0,.23-.04,3.06-.07,6.12-.11,9.19-.02,2.32,1.52,3.24,3.86,3.34.07,0,.11,0,.18,0,1.93.08,3.37-.45,3.91-1.93.11-.32.19-.67.22-1.08.22-3.05.45-6.11.68-9.16.18-2.31-1.49-3.36-4.12-3.47M58.31,67.21c-.15,2.8-.3,5.59-.45,8.39-.01.27-.06.49-.14.67-.23.54-.73.69-1.37.66-.86-.03-1.43-.36-1.4-1.45.09-2.8.18-5.6.26-8.39,0-.07,0-.14.01-.2.11-.92.73-1.17,1.59-1.14.93.04,1.55.38,1.49,1.47"></path><path class="cls-3" d="M72.04,65.23c-.47,3.07-.93,6.15-1.39,9.22-.1-.48-.2-.96-.3-1.44-.59-2.81-1.22-5.61-1.9-8.4-1.14-.14-1.71-.2-2.86-.31-.01.14-.03.28-.04.42-.52,4.94-1.03,9.87-1.53,14.81.91.09,1.37.14,2.25.24.03,0,.05,0,.08,0,.32-2.74.66-5.47.99-8.21.07-.56.14-1.12.2-1.67.8,3.43,1.53,6.87,2.16,10.32.93.13,1.41.21,2.3.35.03,0,.07.01.1.02.82-5.04,1.67-10.07,2.54-15.1-1.04-.17-1.55-.25-2.59-.4,0,.05-.01.1-.02.14"></path><path class="cls-3" d="M81.05,66.67c-2.11,4.72-4.1,9.48-5.97,14.27-.02.05-.04.1-.06.15.97.18,1.46.27,2.43.47.49-1.29.74-1.94,1.25-3.23,1.02.21,1.58.34,2.51.55.1.02.21.05.33.08-.08,1.14-.12,1.82-.19,2.8-.01.2-.03.42-.05.65,1.01.24,1.52.36,2.53.62.32-5.19.57-10.39.75-15.59-.55-.13-.99-.23-1.41-.32-.65-.15-1.25-.27-2.11-.45M79.48,76.35c.05-.13.11-.27.16-.4.47-1.18.95-2.36,1.43-3.54.34-.82.68-1.64,1.02-2.46-.12,2.29-.26,4.59-.41,6.88-.88-.2-1.32-.3-2.2-.48"></path><path class="cls-3" d="M40.66,2.6h.55c.35-.01.52.15.53.5l.02,1.34c0,.35-.16.52-.51.53h-.55s-.04-2.38-.04-2.38ZM41.05,4.65h.13c.14,0,.21-.07.2-.22l-.02-1.32c0-.14-.07-.21-.21-.21h-.13s.03,1.75.03,1.75Z"></path><path class="cls-3" d="M42.39,3.59c.08-.05.17-.07.28-.08h.02c.24,0,.39.15.39.39v.62c.01.3-.13.44-.43.45h-.16c-.3,0-.44-.14-.45-.43l-.02-1.54c0-.3.14-.44.44-.45h.16c.3,0,.44.13.44.43v.33s-.35,0-.35,0v-.3c0-.1-.05-.14-.14-.14h-.06c-.09,0-.13.05-.13.14v.58ZM42.41,4.51c0,.1.05.14.13.14h.06c.09,0,.13-.05.13-.14v-.53c-.01-.1-.05-.14-.15-.14-.07,0-.14.02-.19.04v.64Z"></path><path class="cls-3" d="M44.05,4.49v-.54c-.09.04-.18.07-.29.07h-.01c-.24,0-.39-.15-.39-.39v-.65c-.01-.3.13-.44.43-.45h.15c.3,0,.44.14.45.43l.02,1.54c0,.3-.14.44-.44.45h-.15c-.3,0-.44-.13-.45-.43v-.3s.35,0,.35,0v.28c0,.1.05.14.14.14h.06c.09,0,.13-.05.13-.14ZM44.03,2.99c0-.1-.05-.14-.13-.14h-.05c-.09,0-.13.05-.13.14v.56c.01.1.05.14.15.14.07,0,.14-.02.18-.04v-.67Z"></path><path class="cls-3" d="M46.23,2.51l.04,2.38h-.36s-.03-1.81-.03-1.81l-.23,1.82h-.36s-.29-1.83-.29-1.83l.03,1.83h-.31s-.04-2.38-.04-2.38h.54s.25,1.72.25,1.72l.21-1.74h.54Z"></path><path class="cls-3" d="M47.44,4.88h-.36s-.04-2.38-.04-2.38h.57c.3-.01.44.13.45.43v.63c.01.3-.13.44-.43.45h-.21s.01.87.01.87ZM47.56,2.81h-.15s.01.88.01.88h.15c.09,0,.14-.05.13-.14v-.6c-.01-.09-.05-.14-.15-.14Z"></path><path class="cls-3" d="M49.39,4.04v.81s-.35,0-.35,0v-.8c-.01-.11-.06-.15-.17-.15h-.16s.01.96.01.96h-.36s-.04-2.38-.04-2.38h.6c.3-.01.44.13.45.43v.45c0,.21-.06.31-.2.37.15.04.21.13.22.31ZM48.87,2.8h-.18s.01.79.01.79h.16c.1,0,.15-.05.15-.15v-.5c0-.09-.05-.13-.15-.13Z"></path><path class="cls-3" d="M50.33,4.86h-.19c-.3,0-.44-.14-.45-.43l-.02-1.54c0-.3.14-.44.44-.45h.19c.3,0,.44.14.45.43l.02,1.54c0,.3-.14.44-.44.45ZM50.24,2.75h-.08c-.1,0-.14.05-.14.14l.02,1.5c0,.1.05.14.14.14h.08c.09,0,.14-.05.13-.14l-.02-1.5c0-.1-.05-.14-.14-.14Z"></path><path class="cls-3" d="M51.03,2.44h.55c.35-.01.52.15.53.5l.02,1.34c0,.35-.16.52-.51.53h-.55s-.04-2.38-.04-2.38ZM51.43,4.5h.13c.14,0,.21-.07.2-.22l-.02-1.32c0-.14-.07-.21-.21-.21h-.13s.03,1.75.03,1.75Z"></path><path class="cls-3" d="M53.49,4.37c0,.3-.14.44-.44.45h-.18c-.3,0-.44-.14-.45-.43l-.03-1.96h.36s.03,1.94.03,1.94c0,.1.05.14.14.14h.06c.09,0,.14-.05.13-.14l-.03-1.94h.36s.03,1.96.03,1.96Z"></path><path class="cls-3" d="M54.51,4.77l-.37-1.16.02,1.17h-.36s-.04-2.38-.04-2.38h.36s.02,1.15.02,1.15l.36-1.16h.38s-.39,1.17-.39,1.17l.41,1.21h-.39Z"></path><path class="cls-3" d="M56.11,3.94v.39c.01.3-.13.44-.43.45h-.16c-.3,0-.44-.14-.45-.43v-.5s.35,0,.35,0v.49c0,.09.05.14.15.13h.05c.1,0,.14-.05.14-.14v-.33c0-.1-.04-.14-.11-.19l-.37-.26c-.16-.11-.21-.22-.22-.41v-.33c0-.3.13-.44.43-.45h.15c.29,0,.44.14.45.43v.43s-.35,0-.35,0v-.42c0-.09-.05-.14-.14-.13h-.04c-.09,0-.14.05-.13.14v.27c0,.1.04.15.11.19l.37.26c.16.11.21.22.22.41Z"></path><path class="cls-3" d="M56.99,4.29c0,.3-.14.44-.44.45h-.22s0-.33,0-.33h.16c.1,0,.14-.05.14-.14l-.03-1.91h.36s.03,1.94.03,1.94Z"></path><path class="cls-3" d="M57.93,4.74h-.19c-.3,0-.44-.14-.45-.43l-.02-1.54c0-.3.14-.44.44-.45h.19c.3,0,.44.14.45.43l.02,1.54c0,.3-.14.45-.44.45ZM57.84,2.64h-.08c-.1,0-.14.05-.14.14l.02,1.5c0,.1.05.14.14.14h.08c.09,0,.14-.05.13-.14l-.02-1.5c0-.09-.05-.14-.14-.14Z"></path><path class="cls-3" d="M59.36,4.7l-.4-1.6v.42s.03,1.19.03,1.19h-.33s-.04-2.38-.04-2.38h.43s.36,1.46.36,1.46v-.4s-.03-1.07-.03-1.07h.33s.04,2.38.04,2.38h-.4Z"></path></svg>